<svg width="82" height="78" viewBox="0 0 82 78" fill="none" xmlns="http://www.w3.org/2000/svg">
<path d="M57.1298 20.1835C56.3836 20.1806 55.7779 20.7863 55.7808 21.5325V45.7161C55.7779 46.4623 56.3836 47.068 57.1298 47.0651H62.4962C62.4962 47.0651 64.1252 47.0839 65.7895 46.2517C67.4537 45.4196 69.2216 43.6694 69.2216 40.3397V26.9089C69.2216 23.5656 67.4537 21.829 65.7895 20.9969C64.1252 20.1648 62.4962 20.1835 62.4962 20.1835H57.1298ZM58.4689 22.8717H62.4962C62.4962 22.8717 63.566 22.8957 64.5892 23.4073C65.6125 23.9189 66.5334 24.8897 66.5334 26.9089V40.3397C66.5334 42.3851 65.6125 43.3297 64.5892 43.8413C63.566 44.3529 62.4962 44.3769 62.4962 44.3769H58.4689V22.8717Z" fill="#1B2F78"/>
<path d="M19.4955 20.1835C19.4955 20.1835 17.8764 20.1648 16.2121 20.9969C14.5479 21.829 12.78 23.5802 12.78 26.9089V40.3398C12.78 43.6765 14.5479 45.4196 16.2121 46.2517C17.8764 47.0838 19.4955 47.0651 19.4955 47.0651H24.8718C25.618 47.068 26.2237 46.4623 26.2208 45.7161V21.5325C26.2237 20.7863 25.618 20.1806 24.8718 20.1835H19.4955ZM19.4955 22.8717H23.5327V44.377H19.4955C19.4955 44.377 18.4356 44.3529 17.4124 43.8413C16.3891 43.3297 15.4682 42.3851 15.4682 40.3398V26.9089C15.4682 24.8623 16.3891 23.9189 17.4124 23.4073C18.4356 22.8957 19.4955 22.8717 19.4955 22.8717V22.8717Z" fill="#1B2F78"/>
<path d="M28.9089 52.8878C28.1665 52.885 27.5625 53.4846 27.5598 54.2269V59.6033C27.5598 59.6033 27.5411 61.2323 28.3732 62.8965C29.2054 64.5608 30.9716 66.3286 34.2852 66.3286H47.7161C51.0405 66.3286 52.7959 64.5608 53.6281 62.8965C54.4602 61.2323 54.4415 59.6033 54.4415 59.6033V54.2269C54.4388 53.4846 53.8348 52.885 53.0924 52.8878H28.9089ZM30.248 55.576H51.7533V59.6033C51.7533 59.6033 51.7294 60.673 51.2176 61.6963C50.706 62.7195 49.7483 63.6405 47.7161 63.6405H34.2852C32.2503 63.6405 31.2953 62.7195 30.7837 61.6963C30.272 60.673 30.248 59.6033 30.248 59.6033V55.576Z" fill="#1B2F78"/>
<path d="M24.8718 22.8717V25.5599H57.1298V22.8717H24.8718Z" fill="#1B2F78"/>
<path d="M50.4043 41.6888C50.0495 41.6901 49.7097 41.8316 49.4588 42.0825C49.2079 42.3333 49.0664 42.6732 49.0652 43.028V53.7806H51.7533V44.377H57.1297V41.6888H50.4043Z" fill="#1B2F78"/>
<path d="M24.8718 41.6888V44.377H30.2482V53.7806H32.9363V43.028C32.9351 42.6732 32.7936 42.3333 32.5427 42.0824C32.2918 41.8316 31.952 41.6901 31.5972 41.6888H24.8718Z" fill="#1B2F78"/>
<path d="M32.9363 64.5332V77.9641H35.6245V64.5332H32.9363Z" fill="#1B2F78"/>
<path d="M46.377 64.5332V77.9641H49.0651V64.5332H46.377Z" fill="#1B2F78"/>
<path d="M0.688232 25.5598V28.248H14.129V25.5598H0.688232Z" fill="#1B2F78"/>
<path d="M0.688232 39.0006V41.6888H14.129V39.0006H0.688232Z" fill="#1B2F78"/>
<path d="M67.8726 25.5598V28.248H81.3134V25.5598H67.8726Z" fill="#1B2F78"/>
<path d="M67.8726 39.0006V41.6888H81.3134V39.0006H67.8726Z" fill="#1B2F78"/>
<path d="M26.2207 0.0272565C26.2207 0.0272565 24.5917 0.00852098 22.9275 0.840649C21.2632 1.67278 19.4954 3.44398 19.4954 6.75262C19.4954 10.0514 21.2632 11.8225 22.9275 12.6547C24.5917 13.4868 26.2207 13.4681 26.2207 13.4681H55.7806C55.7806 13.4681 57.4096 13.4868 59.0738 12.6547C60.7381 11.8225 62.496 10.0823 62.496 6.75262C62.496 3.41774 60.7381 1.67278 59.0738 0.840649C57.4096 0.00852197 55.7806 0.0272565 55.7806 0.0272565H26.2207ZM26.2207 2.71542H55.7806C55.7806 2.71542 56.8404 2.73944 57.8637 3.25107C58.8869 3.76269 59.8079 4.6714 59.8079 6.75262C59.8079 8.81374 58.8869 9.74254 57.8637 10.2542C56.8404 10.7658 55.7806 10.7799 55.7806 10.7799H26.2207C26.2207 10.7799 25.151 10.7658 24.1277 10.2542C23.1045 9.74254 22.1835 8.77175 22.1835 6.75262C22.1835 4.6915 23.1045 3.76269 24.1277 3.25107C25.151 2.73944 26.2207 2.71542 26.2207 2.71542V2.71542Z" fill="#1B2F78"/>
<path d="M45.0281 12.1289V24.2207H47.7162V12.1289H45.0281Z" fill="#1B2F78"/>
<path d="M34.2854 12.1289V24.2207H36.9736V12.1289H34.2854Z" fill="#1B2F78"/>
</svg>
