<svg width="48" height="48" viewBox="0 0 48 48" fill="none" xmlns="http://www.w3.org/2000/svg">
<g clip-path="url(#clip0_608_4489)">
<path d="M31.223 18.6521C31.0696 18.4989 30.8679 18.4037 30.6522 18.3826C30.4364 18.3615 30.2201 18.4159 30.0399 18.5364C29.8598 18.657 29.727 18.8362 29.6642 19.0437C29.6014 19.2511 29.6125 19.474 29.6955 19.6742C29.7786 19.8744 29.9285 20.0396 30.1197 20.1417C30.3109 20.2438 30.5315 20.2765 30.7441 20.2341C30.9567 20.1918 31.148 20.077 31.2855 19.9094C31.4229 19.7419 31.498 19.5318 31.498 19.3151C31.4971 19.0665 31.3983 18.8283 31.223 18.6521Z" fill="#0085FF"/>
<path d="M46.827 0.529001L46.795 0.506001C46.3237 0.176159 45.7623 -0.000516391 45.187 1.13372e-06H18.935C18.3955 -0.000337494 17.8673 0.155235 17.414 0.448001C17.3793 0.468507 17.3459 0.49122 17.314 0.516001C16.9457 0.775788 16.6452 1.12036 16.4379 1.52066C16.2306 1.92095 16.1226 2.36522 16.123 2.816V17.439C16.1238 18.1848 16.4205 18.8998 16.9478 19.4272C17.4752 19.9546 18.1902 20.2512 18.9361 20.252H25.874C25.9997 20.2561 26.125 20.2349 26.2423 20.1896C26.3596 20.1444 26.4667 20.076 26.557 19.9885C26.6474 19.901 26.7192 19.7963 26.7683 19.6805C26.8174 19.5647 26.8427 19.4403 26.8427 19.3145C26.8427 19.1887 26.8174 19.0643 26.7683 18.9485C26.7192 18.8327 26.6474 18.728 26.557 18.6405C26.4667 18.553 26.3596 18.4846 26.2423 18.4394C26.125 18.3941 25.9997 18.3729 25.874 18.377H19.853L27.553 9.386L31.5161 12.246C31.6761 12.3618 31.8685 12.4242 32.066 12.4242C32.2636 12.4242 32.456 12.3618 32.616 12.246L36.5851 9.391L44.275 18.376H34.694C34.5684 18.3719 34.4431 18.3931 34.3258 18.4384C34.2085 18.4836 34.1014 18.552 34.0111 18.6395C33.9207 18.727 33.8489 18.8317 33.7998 18.9475C33.7507 19.0633 33.7254 19.1877 33.7254 19.3135C33.7254 19.4393 33.7507 19.5637 33.7998 19.6795C33.8489 19.7953 33.9207 19.9 34.0111 19.9875C34.1014 20.075 34.2085 20.1434 34.3258 20.1886C34.4431 20.2339 34.5684 20.2551 34.694 20.251H45.194C45.9399 20.2502 46.6549 19.9536 47.1823 19.4262C47.7096 18.8988 48.0063 18.1838 48.0071 17.438V2.813C48.0062 2.36589 47.8987 1.92543 47.6935 1.5282C47.4882 1.13097 47.1912 0.788424 46.827 0.529001ZM18.019 17.638C18.0046 17.5723 17.9972 17.5053 17.997 17.438V2.813C17.9972 2.71518 18.0127 2.61799 18.043 2.525L26.024 8.285L18.019 17.638ZM32.062 10.33L20.346 1.875H43.8131L32.062 10.33ZM46.125 17.439C46.1249 17.5063 46.1175 17.5733 46.103 17.639L38.103 8.294L46.0851 2.552C46.1102 2.63741 46.123 2.72597 46.123 2.815L46.125 17.439Z" fill="#0085FF"/>
<path d="M41.9969 40.98C41.8612 40.9798 41.7271 41.0091 41.6039 41.066H41.1459C41.0202 41.0619 40.8949 41.0831 40.7776 41.1283C40.6603 41.1736 40.5533 41.242 40.4629 41.3295C40.3725 41.4169 40.3007 41.5217 40.2516 41.6375C40.2025 41.7532 40.1772 41.8777 40.1772 42.0035C40.1772 42.1292 40.2025 42.2537 40.2516 42.3695C40.3007 42.4853 40.3725 42.59 40.4629 42.6775C40.5533 42.7649 40.6603 42.8333 40.7776 42.8786C40.8949 42.9239 41.0202 42.9451 41.1459 42.941H41.9969C42.2457 42.941 42.4842 42.8421 42.6602 42.6662C42.8361 42.4903 42.9349 42.2517 42.9349 42.003V41.917C42.9346 41.6684 42.8357 41.4301 42.6598 41.2544C42.4839 41.0787 42.2455 40.98 41.9969 40.98Z" fill="#1B2F78"/>
<path d="M42 36.292C41.7512 36.292 41.5126 36.3908 41.3367 36.5667C41.1608 36.7426 41.062 36.9812 41.062 37.23V38.168C41.07 38.4113 41.1722 38.642 41.3471 38.8114C41.5221 38.9807 41.756 39.0753 41.9995 39.0753C42.243 39.0753 42.4769 38.9807 42.6519 38.8114C42.8268 38.642 42.9291 38.4113 42.937 38.168V37.23C42.937 36.9814 42.8383 36.743 42.6626 36.5671C42.4869 36.3912 42.2486 36.2923 42 36.292Z" fill="#1B2F78"/>
<path d="M37.3978 41.0661H36.4598C36.3341 41.0619 36.2089 41.0832 36.0916 41.1284C35.9743 41.1737 35.8672 41.2421 35.7769 41.3295C35.6865 41.417 35.6147 41.5217 35.5656 41.6375C35.5165 41.7533 35.4912 41.8778 35.4912 42.0036C35.4912 42.1293 35.5165 42.2538 35.5656 42.3696C35.6147 42.4854 35.6865 42.5901 35.7769 42.6776C35.8672 42.765 35.9743 42.8334 36.0916 42.8787C36.2089 42.9239 36.3341 42.9452 36.4598 42.9411H37.3978C37.5235 42.9452 37.6488 42.9239 37.7661 42.8787C37.8834 42.8334 37.9904 42.765 38.0808 42.6776C38.1712 42.5901 38.243 42.4854 38.2921 42.3696C38.3412 42.2538 38.3665 42.1293 38.3665 42.0036C38.3665 41.8778 38.3412 41.7533 38.2921 41.6375C38.243 41.5217 38.1712 41.417 38.0808 41.3295C37.9904 41.2421 37.8834 41.1737 37.7661 41.1284C37.6488 41.0832 37.5235 41.0619 37.3978 41.0661Z" fill="#1B2F78"/>
<path d="M42 22.228C41.7512 22.228 41.5127 22.3269 41.3367 22.5028C41.1608 22.6787 41.062 22.9172 41.062 23.166V24.104C41.0579 24.2297 41.0791 24.3549 41.1244 24.4723C41.1696 24.5896 41.2381 24.6966 41.3255 24.787C41.413 24.8774 41.5177 24.9492 41.6335 24.9983C41.7493 25.0474 41.8738 25.0726 41.9995 25.0726C42.1253 25.0726 42.2497 25.0474 42.3655 24.9983C42.4813 24.9492 42.586 24.8774 42.6735 24.787C42.761 24.6966 42.8294 24.5896 42.8746 24.4723C42.9199 24.3549 42.9411 24.2297 42.937 24.104V23.166C42.937 22.9174 42.8383 22.679 42.6626 22.5031C42.4869 22.3272 42.2486 22.2283 42 22.228Z" fill="#1B2F78"/>
<path d="M42 26.916C41.7512 26.916 41.5126 27.0148 41.3367 27.1907C41.1608 27.3666 41.062 27.6052 41.062 27.854V28.792C41.07 29.0353 41.1722 29.2661 41.3471 29.4354C41.5221 29.6047 41.756 29.6994 41.9995 29.6994C42.243 29.6994 42.4769 29.6047 42.6519 29.4354C42.8268 29.2661 42.9291 29.0353 42.937 28.792V27.854C42.937 27.6054 42.8383 27.367 42.6626 27.1911C42.4869 27.0152 42.2486 26.9163 42 26.916Z" fill="#1B2F78"/>
<path d="M42 31.604C41.7512 31.604 41.5126 31.7028 41.3367 31.8787C41.1608 32.0546 41.062 32.2932 41.062 32.542V33.48C41.07 33.7233 41.1722 33.9541 41.3471 34.1234C41.5221 34.2927 41.756 34.3874 41.9995 34.3874C42.243 34.3874 42.4769 34.2927 42.6519 34.1234C42.8268 33.9541 42.9291 33.7233 42.937 33.48V32.542C42.937 32.2934 42.8383 32.055 42.6626 31.8791C42.4869 31.7032 42.2486 31.6043 42 31.604Z" fill="#1B2F78"/>
<path d="M6.93387 5.063H5.99987C5.87418 5.05889 5.74895 5.0801 5.63162 5.12537C5.51429 5.17064 5.40727 5.23903 5.3169 5.32649C5.22654 5.41395 5.15468 5.51869 5.10561 5.63448C5.05654 5.75027 5.03125 5.87474 5.03125 6.0005C5.03125 6.12626 5.05654 6.25073 5.10561 6.36652C5.15468 6.4823 5.22654 6.58704 5.3169 6.6745C5.40727 6.76196 5.51429 6.83036 5.63162 6.87563C5.74895 6.9209 5.87418 6.94211 5.99987 6.938H6.93787C7.06356 6.94211 7.1888 6.9209 7.30613 6.87563C7.42345 6.83036 7.53048 6.76196 7.62085 6.6745C7.71121 6.58704 7.78306 6.4823 7.83213 6.36652C7.88121 6.25073 7.90649 6.12626 7.90649 6.0005C7.90649 5.87474 7.88121 5.75027 7.83213 5.63448C7.78306 5.51869 7.71121 5.41395 7.62085 5.32649C7.53048 5.23903 7.42345 5.17064 7.30613 5.12537C7.1888 5.0801 7.06356 5.05889 6.93787 5.063H6.93387Z" fill="#1B2F78"/>
<path d="M11.621 5.063H10.683C10.5573 5.05889 10.4321 5.0801 10.3147 5.12537C10.1974 5.17064 10.0904 5.23903 10 5.32649C9.90964 5.41395 9.83779 5.51869 9.78872 5.63448C9.73965 5.75027 9.71436 5.87474 9.71436 6.0005C9.71436 6.12626 9.73965 6.25073 9.78872 6.36652C9.83779 6.4823 9.90964 6.58704 10 6.6745C10.0904 6.76196 10.1974 6.83036 10.3147 6.87563C10.4321 6.9209 10.5573 6.94211 10.683 6.938H11.621C11.7467 6.94211 11.8719 6.9209 11.9892 6.87563C12.1066 6.83036 12.2136 6.76196 12.304 6.6745C12.3943 6.58704 12.4662 6.4823 12.5152 6.36652C12.5643 6.25073 12.5896 6.12626 12.5896 6.0005C12.5896 5.87474 12.5643 5.75027 12.5152 5.63448C12.4662 5.51869 12.3943 5.41395 12.304 5.32649C12.2136 5.23903 12.1066 5.17064 11.9892 5.12537C11.8719 5.0801 11.7467 5.05889 11.621 5.063Z" fill="#1B2F78"/>
<path d="M6.00002 8.81299C5.75125 8.81299 5.51266 8.91181 5.33675 9.08772C5.16085 9.26362 5.06202 9.50221 5.06202 9.75098V10.689C5.05792 10.8147 5.07913 10.9399 5.12439 11.0572C5.16966 11.1746 5.23806 11.2816 5.32552 11.372C5.41298 11.4623 5.51772 11.5342 5.6335 11.5832C5.74929 11.6323 5.87377 11.6576 5.99952 11.6576C6.12528 11.6576 6.24975 11.6323 6.36554 11.5832C6.48133 11.5342 6.58607 11.4623 6.67353 11.372C6.76099 11.2816 6.82938 11.1746 6.87465 11.0572C6.91992 10.9399 6.94113 10.8147 6.93702 10.689V9.75098C6.93702 9.50238 6.83833 9.26395 6.66264 9.08807C6.48695 8.91219 6.24862 8.81325 6.00002 8.81299Z" fill="#1B2F78"/>
<path d="M6.00002 13.501C5.75125 13.501 5.51266 13.5998 5.33675 13.7757C5.16085 13.9516 5.06202 14.1902 5.06202 14.439V15.377C5.05792 15.5027 5.07913 15.6279 5.12439 15.7452C5.16966 15.8626 5.23806 15.9696 5.32552 16.06C5.41298 16.1503 5.51772 16.2222 5.6335 16.2712C5.74929 16.3203 5.87377 16.3456 5.99952 16.3456C6.12528 16.3456 6.24975 16.3203 6.36554 16.2712C6.48133 16.2222 6.58607 16.1503 6.67353 16.06C6.76099 15.9696 6.82938 15.8626 6.87465 15.7452C6.91992 15.6279 6.94113 15.5027 6.93702 15.377V14.439C6.93702 14.1904 6.83833 13.9519 6.66264 13.7761C6.48695 13.6002 6.24862 13.5012 6.00002 13.501Z" fill="#1B2F78"/>
<path d="M10.369 38.0011C10.2156 37.8479 10.0139 37.7527 9.79816 37.7316C9.58244 37.7105 9.36608 37.7649 9.18593 37.8854C9.00579 38.006 8.87301 38.1852 8.81021 38.3927C8.74741 38.6001 8.75848 38.8229 8.84152 39.0232C8.92456 39.2234 9.07445 39.3886 9.26565 39.4907C9.45684 39.5928 9.67752 39.6254 9.8901 39.5831C10.1027 39.5407 10.294 39.426 10.4315 39.2584C10.5689 39.0909 10.644 38.8808 10.644 38.6641C10.6431 38.4155 10.5443 38.1773 10.369 38.0011Z" fill="#0085FF"/>
<path d="M29.184 38.994L24.244 34.054C23.5615 33.3733 22.6369 32.9911 21.673 32.9911C20.7091 32.9911 19.7845 33.3733 19.102 34.054L18.78 34.376C18.5648 34.5908 18.2731 34.7114 17.969 34.7114C17.6649 34.7114 17.3732 34.5908 17.158 34.376L13.624 30.8419C13.5174 30.7355 13.4328 30.6091 13.3751 30.4699C13.3174 30.3308 13.2877 30.1816 13.2877 30.031C13.2877 29.8803 13.3174 29.7311 13.3751 29.592C13.4328 29.4528 13.5174 29.3264 13.624 29.22L13.946 28.8979C14.6269 28.2156 15.0093 27.2909 15.0093 26.327C15.0093 25.363 14.6269 24.4383 13.946 23.756L9.00602 18.8159C8.32362 18.1351 7.399 17.7527 6.43502 17.7527C5.47103 17.7527 4.54641 18.1351 3.86402 18.8159L2.68202 19.998C0.964857 21.7189 0.000488281 24.0508 0.000488281 26.4819C0.000488281 28.9131 0.964857 31.245 2.68202 32.966L5.90002 36.188C5.98615 36.2791 6.08969 36.3521 6.20452 36.4025C6.31934 36.453 6.44311 36.4799 6.56852 36.4816C6.69392 36.4834 6.81841 36.46 6.93461 36.4129C7.05082 36.3657 7.15639 36.2957 7.24507 36.207C7.33375 36.1183 7.40375 36.0128 7.45092 35.8966C7.4981 35.7804 7.52149 35.6559 7.51971 35.5305C7.51793 35.4051 7.49103 35.2813 7.44058 35.1665C7.39014 35.0516 7.31717 34.9481 7.22602 34.862L4.00302 31.639C2.63637 30.2703 1.86877 28.4151 1.86877 26.481C1.86877 24.5468 2.63637 22.6917 4.00302 21.323L5.18502 20.141C5.51551 19.8113 5.96324 19.6262 6.43002 19.6262C6.89679 19.6262 7.34452 19.8113 7.67502 20.141L12.615 25.0809C12.9446 25.4114 13.1298 25.8592 13.1298 26.326C13.1298 26.7927 12.9446 27.2405 12.615 27.571L12.293 27.893C12.1763 28.0101 12.0693 28.1365 11.973 28.271L8.07302 24.371C7.89554 24.2033 7.65966 24.1114 7.41552 24.1148C7.17137 24.1183 6.93819 24.2168 6.76554 24.3895C6.59288 24.5621 6.49436 24.7953 6.4909 25.0395C6.48744 25.2836 6.57932 25.5195 6.74702 25.697L11.431 30.381C11.5079 31.0574 11.8126 31.6876 12.295 32.168L15.829 35.702C16.3961 36.2677 17.1645 36.5855 17.9655 36.5855C18.7666 36.5855 19.5349 36.2677 20.102 35.702L20.424 35.38C20.7545 35.0503 21.2022 34.8652 21.669 34.8652C22.1358 34.8652 22.5835 35.0503 22.914 35.38L27.854 40.32C28.1841 40.6502 28.3696 41.098 28.3696 41.565C28.3696 42.0319 28.1841 42.4797 27.854 42.81L27.183 43.481L22.683 38.981C22.5969 38.8898 22.4933 38.8168 22.3785 38.7664C22.2637 38.7159 22.1399 38.689 22.0145 38.6873C21.8891 38.6855 21.7646 38.7089 21.6484 38.756C21.5322 38.8032 21.4266 38.8732 21.338 38.9619C21.2493 39.0506 21.1793 39.1561 21.1321 39.2724C21.0849 39.3886 21.0615 39.5131 21.0633 39.6385C21.0651 39.7639 21.092 39.8876 21.1425 40.0025C21.1929 40.1173 21.2659 40.2208 21.357 40.307L25.788 44.738C24.3821 45.7532 22.6608 46.2352 20.9321 46.0977C19.2034 45.9603 17.5799 45.2125 16.352 43.988L13.924 41.56C13.8379 41.4688 13.7343 41.3958 13.6195 41.3454C13.5047 41.2949 13.3809 41.268 13.2555 41.2663C13.1301 41.2645 13.0056 41.2879 12.8894 41.3351C12.7732 41.3822 12.6676 41.4522 12.579 41.5409C12.4903 41.6296 12.4203 41.7351 12.3731 41.8513C12.3259 41.9676 12.3025 42.092 12.3043 42.2175C12.3061 42.3429 12.333 42.4666 12.3835 42.5815C12.4339 42.6963 12.5069 42.7998 12.598 42.886L15.026 45.3139C16.747 47.0311 19.0789 47.9955 21.51 47.9955C23.9412 47.9955 26.273 47.0311 27.994 45.3139L29.176 44.132C29.8579 43.4501 30.2409 42.5253 30.2409 41.561C30.2409 40.5967 29.8579 39.6718 29.176 38.99L29.184 38.994Z" fill="#0085FF"/>
</g>
<defs>
<clipPath id="clip0_608_4489">
<rect width="48" height="48" fill="white"/>
</clipPath>
</defs>
</svg>
