<svg width="18" height="18" viewBox="0 0 18 18" fill="none" xmlns="http://www.w3.org/2000/svg">
<path d="M10.0575 9.00002L13.2825 5.78252C13.4237 5.64129 13.503 5.44974 13.503 5.25002C13.503 5.05029 13.4237 4.85874 13.2825 4.71752C13.1412 4.57629 12.9497 4.49695 12.75 4.49695C12.5502 4.49695 12.3587 4.57629 12.2175 4.71752L8.99995 7.94252L5.78245 4.71752C5.64123 4.57629 5.44968 4.49695 5.24995 4.49695C5.05023 4.49695 4.85868 4.57629 4.71745 4.71752C4.57623 4.85874 4.49689 5.05029 4.49689 5.25002C4.49689 5.44974 4.57623 5.64129 4.71745 5.78252L7.94245 9.00002L4.71745 12.2175C4.64716 12.2872 4.59136 12.3702 4.55329 12.4616C4.51521 12.553 4.49561 12.651 4.49561 12.75C4.49561 12.849 4.51521 12.9471 4.55329 13.0384C4.59136 13.1298 4.64716 13.2128 4.71745 13.2825C4.78718 13.3528 4.87013 13.4086 4.96152 13.4467C5.05292 13.4848 5.15095 13.5044 5.24995 13.5044C5.34896 13.5044 5.44699 13.4848 5.53839 13.4467C5.62978 13.4086 5.71273 13.3528 5.78245 13.2825L8.99995 10.0575L12.2175 13.2825C12.2872 13.3528 12.3701 13.4086 12.4615 13.4467C12.5529 13.4848 12.6509 13.5044 12.75 13.5044C12.849 13.5044 12.947 13.4848 13.0384 13.4467C13.1298 13.4086 13.2127 13.3528 13.2825 13.2825C13.3527 13.2128 13.4085 13.1298 13.4466 13.0384C13.4847 12.9471 13.5043 12.849 13.5043 12.75C13.5043 12.651 13.4847 12.553 13.4466 12.4616C13.4085 12.3702 13.3527 12.2872 13.2825 12.2175L10.0575 9.00002Z" fill="#1B2F78"/>
</svg>
