<svg width="85" height="46" viewBox="0 0 85 46" fill="none" xmlns="http://www.w3.org/2000/svg">
<g clip-path="url(#clip0_615_6083)">
<path d="M68.2286 31.2417C67.166 31.0689 66.0787 31.1303 65.042 31.4216C64.0052 31.7129 63.0438 32.2273 62.2242 32.929C61.4045 33.6307 60.7462 34.5031 60.2948 35.4859C59.8433 36.4686 59.6095 37.5383 59.6095 38.6208C59.6095 39.7034 59.8433 40.773 60.2948 41.7558C60.7462 42.7385 61.4045 43.6109 62.2242 44.3127C63.0438 45.0144 64.0052 45.5287 65.042 45.8201C66.0787 46.1114 67.166 46.1728 68.2286 46C69.9716 45.7166 71.5574 44.8184 72.7019 43.4663C73.8464 42.1142 74.475 40.3965 74.475 38.6208C74.475 36.8452 73.8464 35.1275 72.7019 33.7754C71.5574 32.4233 69.9716 31.5251 68.2286 31.2417ZM69.7533 40.25C69.3721 40.6333 68.8003 40.825 68.2286 40.825C67.8978 40.8377 67.5688 40.7714 67.2684 40.6316C66.968 40.4919 66.7047 40.2825 66.5002 40.0208C66.2957 39.759 66.1558 39.4523 66.0918 39.1257C66.0278 38.7991 66.0417 38.4619 66.1322 38.1417C66.3101 37.7313 66.6032 37.3821 66.9756 37.1368C67.348 36.8915 67.7834 36.7609 68.2286 36.7609C68.6737 36.7609 69.1092 36.8915 69.4816 37.1368C69.854 37.3821 70.1471 37.7313 70.325 38.1417V38.525C70.325 39.2917 70.1344 39.8667 69.7533 40.25ZM9.91021 31.2417C8.00323 31.2391 6.16823 31.9739 4.78478 33.2938C3.40133 34.6138 2.57527 36.418 2.47748 38.3333C2.44029 39.8111 2.83959 41.2667 3.6249 42.5162C4.41022 43.7658 5.54629 44.7531 6.88948 45.3534C8.23268 45.9537 9.72269 46.14 11.1712 45.8887C12.6196 45.6375 13.9615 44.96 15.0271 43.9419C16.0928 42.9237 16.8343 41.6107 17.1581 40.1688C17.4818 38.7269 17.3731 37.2209 16.8459 35.841C16.3186 34.4612 15.3964 33.2696 14.1958 32.4168C12.9952 31.564 11.5701 31.0884 10.1008 31.05L9.91021 31.2417ZM11.4349 40.25C11.0537 40.6333 10.482 40.825 9.91021 40.825C9.57945 40.8377 9.2504 40.7714 8.95 40.6316C8.64959 40.4919 8.38636 40.2825 8.18186 40.0208C7.97736 39.759 7.8374 39.4523 7.77342 39.1257C7.70945 38.7991 7.72329 38.4619 7.8138 38.1417C7.8138 37.95 7.8138 37.5667 8.19497 37.375C8.57613 36.8 9.14788 36.4167 10.1008 36.4167C10.5794 36.492 11.0218 36.7182 11.3643 37.0627C11.7068 37.4071 11.9317 37.8521 12.0066 38.3333V38.525C12.0066 39.2917 12.0066 39.8667 11.4349 40.25Z" fill="white"/>
<path d="M7.24221 31.2417H1.14355V37.375H2.28705C2.48141 35.9965 3.04533 34.6973 3.91831 33.6168C4.79128 32.5362 5.94036 31.7152 7.24221 31.2417ZM83.4754 33.5417V23.3833C81.5748 22.4776 79.669 21.5831 77.7579 20.7C76.0427 19.7417 76.2332 17.825 75.6615 16.2917L73.3745 8.81667C72.9336 7.25981 72.7406 5.64256 72.8027 4.025H59.6525V31.2417H12.5785C13.9051 31.7047 15.0831 32.5187 15.9886 33.598C16.8941 34.6773 17.4937 35.982 17.7243 37.375H59.6525C60.796 33.925 63.4642 30.475 67.2758 30.2833C71.6592 29.7083 75.6615 32.9667 76.6144 36.9917H85.0001V33.5417H83.4754ZM65.5606 20.125V10.35H72.231L74.8992 20.125H65.37H65.5606ZM83.0942 33.7333H77.3767V30.2833H83.0942V33.7333Z" fill="white"/>
<path d="M55.2691 4.6H47.074V2.3H48.0269V0H39.4507V2.3H40.213V4.6H14.2937V2.3H15.2466V0H9.52915V2.68333H10.4821V4.6H2.85874C2.85874 4.6 0 6.13333 0 17.825C0 29.325 3.62108 30.2833 3.62108 30.2833H55.6502C55.6502 30.2833 58.3184 27.7917 58.6996 17.0583C59.0807 6.51667 55.2691 4.6 55.2691 4.6ZM20.9641 21.4667L19.0583 19.55L17.1525 17.6333C16.9619 17.0583 17.1525 16.8667 17.5336 16.8667H18.6771C18.6771 8.43333 30.8744 4.21667 36.5919 10.7333C35.3101 9.75458 33.7532 9.20891 32.1442 9.17448C30.5352 9.14005 28.9566 9.61863 27.6345 10.5417C26.6526 11.2354 25.8474 12.1524 25.2844 13.2182C24.7214 14.284 24.4165 15.4684 24.3946 16.675V16.8667H25.5381C26.1099 16.8667 26.3004 17.0583 25.9193 17.6333L24.0135 19.55L22.1076 21.4667C21.917 21.85 21.3453 21.85 20.9641 21.4667ZM41.1659 18.0167H39.8318C39.8318 26.6417 27.8251 30.8583 22.1076 24.3417C24.7758 26.2583 28.3969 26.2583 31.065 24.3417C32.9709 23.1917 34.1143 21.0833 34.1143 18.2083H32.9709C32.3991 18.2083 32.2085 17.825 32.7803 17.4417L34.6861 15.525L36.2108 13.4167C36.5919 13.0333 37.1637 13.0333 37.5448 13.4167L39.4507 15.3333L41.1659 17.25C41.5471 17.825 41.3565 18.0167 40.9753 18.0167H41.1659Z" fill="white"/>
</g>
<defs>
<clipPath id="clip0_615_6083">
<rect width="85" height="46" fill="white"/>
</clipPath>
</defs>
</svg>
