<svg width="75" height="78" viewBox="0 0 75 78" fill="none" xmlns="http://www.w3.org/2000/svg">
<path d="M54.7144 38C43.7144 38 34.7144 47 34.7144 58C34.7144 69 43.7144 78 54.7144 78C65.7144 78 74.7144 69 74.7144 58C74.7144 47 65.7144 38 54.7144 38ZM54.7144 75.1429C45.2858 75.1429 37.5715 67.4286 37.5715 58C37.5715 48.5714 45.2858 40.8571 54.7144 40.8571C64.1429 40.8571 71.8572 48.5714 71.8572 58C71.8572 67.4286 64.1429 75.1429 54.7144 75.1429Z" fill="#1B2F78"/>
<path d="M64.7143 47.4285C59.1428 42.1428 50.2857 42.1428 44.7143 47.4285C41.8571 50.1428 40.1428 53.8571 40.1428 57.8571C40.1428 61.8571 41.5714 65.5714 44.4285 68.2857C45 68.8571 45.8571 68.8571 46.4285 68.2857C47 67.7142 47 66.8571 46.4285 66.2857C44.1428 63.9999 43 61 43 57.8571C43 54.7142 44.2857 51.7142 46.7143 49.5714C51.1428 45.4285 58.2857 45.4285 62.8571 49.5714C65.1428 51.7142 66.4285 54.7142 66.5714 57.8571C66.5714 61 65.4285 63.9999 63.1428 66.2857C62.5714 66.8571 62.5714 67.7142 63.1428 68.2857C63.4285 68.5714 63.8571 68.7142 64.1428 68.7142C64.4285 68.7142 64.8571 68.5714 65.1428 68.2857C68 65.4285 69.4285 61.7142 69.4285 57.8571C69.2857 53.8571 67.5714 50.1428 64.7143 47.4285Z" fill="#1B2F78"/>
<path d="M54.7143 50.8572C53.8572 50.8572 53.2857 51.4286 53.2857 52.2857V55.5715C52.4286 56 51.8572 57 51.8572 58C51.8572 59.5715 53.1429 60.8572 54.7143 60.8572C56.2857 60.8572 57.5715 59.5715 57.5715 58C57.5715 57 57 56 56.1429 55.5715V52.2857C56.1429 51.4286 55.5715 50.8572 54.7143 50.8572Z" fill="#1B2F78"/>
<path d="M59 63.7142H50.4286C49.5714 63.7142 49 64.2857 49 65.1428V70.8571C49 71.7142 49.5714 72.2857 50.4286 72.2857H59C59.8571 72.2857 60.4286 71.7142 60.4286 70.8571V65.1428C60.4286 64.2857 59.8571 63.7142 59 63.7142ZM57.5714 69.4285H51.8571V66.5714H57.5714V69.4285Z" fill="#1B2F78"/>
<path d="M31.857 66.5715H4.71418C3.85704 66.5715 3.28561 66 3.28561 65.1429V5.14289C3.28561 4.28575 3.85704 3.71432 4.71418 3.71432H50.4285C51.2856 3.71432 51.857 4.28575 51.857 5.14289V34C51.857 34.8572 52.4285 35.4286 53.2856 35.4286C54.1428 35.4286 54.7142 34.8572 54.7142 34V5.14289C54.7142 2.71432 52.857 0.857178 50.4285 0.857178H4.71418C2.28561 0.857178 0.428467 2.71432 0.428467 5.14289V65.1429C0.428467 67.5715 2.28561 69.4286 4.71418 69.4286H31.857C32.7142 69.4286 33.2856 68.8572 33.2856 68C33.2856 67.1429 32.7142 66.5715 31.857 66.5715Z" fill="#1B2F78"/>
<path d="M21.2857 11.1428C20.5714 10.7142 19.7143 10.8571 19.2857 11.5714L14.5714 18.7142L11.5714 15.7142C11 15.1428 10.1428 15.1428 9.57139 15.7142C8.99997 16.2857 8.99997 17.1428 9.57139 17.7142L13.8571 21.9999C14.1428 22.2857 14.4285 22.4285 14.8571 22.4285H15C15.4285 22.4285 15.8571 22.1428 16 21.8571L21.7143 13.2857C22 12.4285 21.8571 11.5714 21.2857 11.1428Z" fill="#1B2F78"/>
<path d="M44.7143 15.1428H27.5714C26.7143 15.1428 26.1428 15.7143 26.1428 16.5714C26.1428 17.4285 26.7143 18 27.5714 18H44.7143C45.5714 18 46.1428 17.4285 46.1428 16.5714C46.1428 15.7143 45.5714 15.1428 44.7143 15.1428Z" fill="#1B2F78"/>
<path d="M21.2857 28.2857C20.5714 27.8572 19.7143 28 19.2857 28.7143L14.5714 35.8572L11.5714 32.8572C11 32.2857 10.1428 32.2857 9.57139 32.8572C8.99997 33.4286 8.99997 34.2857 9.57139 34.8572L13.8571 39.1429C14.1428 39.4286 14.4285 39.5715 14.8571 39.5715H15C15.4285 39.5715 15.8571 39.2857 16 39L21.7143 30.4286C22 29.5715 21.8571 28.7143 21.2857 28.2857Z" fill="#1B2F78"/>
<path d="M44.7143 32.2858H27.5714C26.7143 32.2858 26.1428 32.8572 26.1428 33.7143C26.1428 34.5715 26.7143 35.1429 27.5714 35.1429H44.7143C45.5714 35.1429 46.1428 34.5715 46.1428 33.7143C46.1428 32.8572 45.5714 32.2858 44.7143 32.2858Z" fill="#1B2F78"/>
<path d="M19.2857 45.7142L14.5714 52.8571L11.5714 49.8571C11 49.2857 10.1428 49.2857 9.57139 49.8571C8.99997 50.4285 8.99997 51.2857 9.57139 51.8571L13.8571 56.1428C14.1428 56.4285 14.4285 56.5714 14.8571 56.5714H15C15.4285 56.5714 15.8571 56.2857 16 55.9999L21.7143 47.4285C22.1428 46.7142 22 45.8571 21.2857 45.4285C20.5714 44.9999 19.7143 45.1428 19.2857 45.7142Z" fill="#1B2F78"/>
<path d="M31.8571 49.4286H27.5714C26.7143 49.4286 26.1428 50 26.1428 50.8572C26.1428 51.7143 26.7143 52.2857 27.5714 52.2857H31.8571C32.7143 52.2857 33.2857 51.7143 33.2857 50.8572C33.2857 50 32.7143 49.4286 31.8571 49.4286Z" fill="#1B2F78"/>
</svg>
