<svg width="23" height="8" viewBox="0 0 23 8" fill="none" xmlns="http://www.w3.org/2000/svg">
<path d="M22.7572 3.43188L19.3491 0.235041C19.2696 0.160524 19.1753 0.101414 19.0715 0.0610854C18.9677 0.020757 18.8565 1.57033e-09 18.7442 0C18.6318 -1.57033e-09 18.5206 0.020757 18.4168 0.0610854C18.313 0.101414 18.2187 0.160524 18.1392 0.235041C18.0598 0.309558 17.9968 0.398023 17.9538 0.495384C17.9108 0.592745 17.8886 0.697097 17.8886 0.80248C17.8886 0.907863 17.9108 1.01221 17.9538 1.10958C17.9968 1.20694 18.0598 1.2954 18.1392 1.36992L20.0989 3.20011H0.852021C0.626051 3.20011 0.409336 3.28431 0.249551 3.43419C0.0897662 3.58407 0 3.78735 0 3.99932C0 4.21128 0.0897662 4.41456 0.249551 4.56444C0.409336 4.71433 0.626051 4.79853 0.852021 4.79853H20.0989L18.1392 6.62872C18.0594 6.70302 17.996 6.79141 17.9527 6.8888C17.9095 6.98619 17.8872 7.09065 17.8872 7.19616C17.8872 7.30166 17.9095 7.40612 17.9527 7.50351C17.996 7.60091 18.0594 7.6893 18.1392 7.7636C18.2184 7.8385 18.3127 7.89796 18.4165 7.93854C18.5203 7.97911 18.6317 8 18.7442 8C18.8566 8 18.968 7.97911 19.0718 7.93854C19.1756 7.89796 19.2699 7.8385 19.3491 7.7636L22.7572 4.56676C22.8347 4.49075 22.8955 4.40112 22.9361 4.30302C23.0213 4.10844 23.0213 3.8902 22.9361 3.69562C22.8955 3.59751 22.8347 3.50789 22.7572 3.43188Z" fill="white"/>
</svg>
