<svg width="10" height="10" viewBox="0 0 10 10" fill="none" xmlns="http://www.w3.org/2000/svg">
<path d="M1.3333 4.38095H7.11615L4.60187 1.87429C4.4584 1.73082 4.3778 1.53623 4.3778 1.33334C4.3778 1.13044 4.4584 0.935853 4.60187 0.792383C4.74534 0.648914 4.93992 0.568314 5.14282 0.568314C5.34572 0.568314 5.5403 0.648914 5.68377 0.792383L9.4933 4.60191C9.56266 4.67437 9.61703 4.75981 9.6533 4.85334C9.7295 5.03883 9.7295 5.24689 9.6533 5.43238C9.61703 5.52591 9.56266 5.61135 9.4933 5.68381L5.68377 9.49333C5.61294 9.56475 5.52868 9.62143 5.43583 9.66011C5.34299 9.69879 5.2434 9.71871 5.14282 9.71871C5.04224 9.71871 4.94265 9.69879 4.84981 9.66011C4.75696 9.62143 4.6727 9.56475 4.60187 9.49333C4.53046 9.42251 4.47377 9.33824 4.43509 9.24539C4.39641 9.15255 4.3765 9.05296 4.3765 8.95238C4.3765 8.8518 4.39641 8.75222 4.43509 8.65937C4.47377 8.56653 4.53046 8.48226 4.60187 8.41143L7.11615 5.90476H1.3333C1.13123 5.90476 0.937433 5.82449 0.794548 5.68161C0.651664 5.53872 0.571392 5.34493 0.571392 5.14286C0.571392 4.94079 0.651664 4.747 0.794548 4.60411C0.937433 4.46123 1.13123 4.38095 1.3333 4.38095Z" fill="#0E1B30"/>
</svg>
