<svg width="85" height="95" viewBox="0 0 85 95" fill="none" xmlns="http://www.w3.org/2000/svg">
<path d="M61.9792 56.2963H56.6667V51.1944C61.2708 47.3241 64.2813 41.5185 64.4583 35.1852H65.5208C68.5312 35.1852 70.8333 32.8981 70.8333 29.9074C70.8333 27.7963 69.5938 25.8611 67.6458 25.1574C66.9375 14.25 59.3229 5.10185 48.6979 2.28704C48.1667 0.87963 46.9271 0 45.3333 0H39.4896C37.8958 0 36.6562 1.05556 36.125 2.28704C25.5 4.92593 17.8854 14.25 17.1771 25.1574C15.4062 25.8611 14.1667 27.7963 14.1667 29.9074C14.1667 32.8981 16.4688 35.1852 19.4792 35.1852H20.5417C20.7188 41.6944 23.7292 47.3241 28.3333 51.1944V56.2963H23.0208C10.8021 56.2963 0 66.1481 0 77.4074V93.2407C0 94.2963 0.708333 95 1.77083 95H83.2292C84.2917 95 85 94.2963 85 93.2407V77.4074C85 66.1481 74.1979 56.2963 61.9792 56.2963ZM60.2083 59.8148V68.6111C60.2083 69.6667 60.9167 70.3704 61.9792 70.3704C63.0417 70.3704 63.75 69.6667 63.75 68.6111V59.9907C64.9896 60.1667 66.0521 60.3426 67.2917 60.6944V91.4815H63.75V82.6852C63.75 81.6296 63.0417 80.9259 61.9792 80.9259C60.9167 80.9259 60.2083 81.6296 60.2083 82.6852V91.4815H44.2708V72.8333L55.7812 59.8148H60.2083ZM36.125 5.98148V7.91667C36.125 8.97222 36.8333 9.67593 37.8958 9.67593C38.9583 9.67593 39.6667 8.97222 39.6667 7.91667V3.34259H45.5104V7.74074C45.5104 8.7963 46.2188 9.5 47.2813 9.5C48.3438 9.5 49.0521 8.7963 49.0521 7.74074V5.98148C57.375 8.62037 63.3958 16.0093 64.1042 24.6296H20.8958C21.6042 16.0093 27.625 8.62037 36.125 5.98148ZM17.7083 29.9074C17.7083 29.0278 18.2396 28.5 18.9479 28.3241C19.125 28.3241 19.3021 28.3241 19.4792 28.1481H65.3438C65.5208 28.1481 65.6979 28.3241 65.875 28.3241C66.5833 28.5 67.1146 29.2037 67.1146 29.9074C67.1146 30.963 66.4063 31.6667 65.3438 31.6667H19.4792C18.4167 31.6667 17.7083 30.963 17.7083 29.9074ZM24.0833 35.1852H61.0938C60.7396 45.037 52.5938 52.9537 42.6771 52.9537C32.7604 52.9537 24.4375 45.037 24.0833 35.1852ZM42.5 56.4722C46.3958 56.4722 49.9375 55.4167 53.125 53.8333V57.5278L42.5 69.6667L31.875 57.5278V53.8333C35.0625 55.4167 38.6042 56.4722 42.5 56.4722ZM29.2188 59.8148L40.7292 72.8333V91.4815H24.7917V82.6852C24.7917 81.6296 24.0833 80.9259 23.0208 80.9259C21.9583 80.9259 21.25 81.6296 21.25 82.6852V91.4815H17.7083V60.5185C18.9479 60.1667 20.0104 59.9907 21.25 59.8148V68.6111C21.25 69.6667 21.9583 70.3704 23.0208 70.3704C24.0833 70.3704 24.7917 69.6667 24.7917 68.6111V59.8148H29.2188ZM3.54167 77.4074C3.54167 71.0741 7.96875 65.0926 14.1667 61.9259V91.4815H3.54167V77.4074ZM81.4583 91.4815H70.8333V61.9259C77.0312 64.9167 81.4583 70.8981 81.4583 77.4074V91.4815Z" fill="white"/>
<path d="M23 78C24.1046 78 25 77.1046 25 76C25 74.8954 24.1046 74 23 74C21.8954 74 21 74.8954 21 76C21 77.1046 21.8954 78 23 78Z" fill="white"/>
<path d="M62 78C63.1046 78 64 77.1046 64 76C64 74.8954 63.1046 74 62 74C60.8954 74 60 74.8954 60 76C60 77.1046 60.8954 78 62 78Z" fill="white"/>
</svg>
