<svg width="78" height="78" viewBox="0 0 78 78" fill="none" xmlns="http://www.w3.org/2000/svg">
<g clip-path="url(#clip0_8071_565)">
<path d="M66.625 71.5H8.125C3.64325 71.5 0 67.8535 0 63.375V17.875C0 16.978 0.728 16.25 1.625 16.25C2.522 16.25 3.25 16.978 3.25 17.875V63.375C3.25 66.0628 5.43725 68.25 8.125 68.25H66.625C67.5188 68.25 68.25 67.522 68.25 66.625V56.875C68.25 55.978 68.978 55.25 69.875 55.25C70.772 55.25 71.5 55.978 71.5 56.875V66.625C71.5 69.3128 69.3128 71.5 66.625 71.5Z" fill="#1B2F78"/>
<path d="M69.875 39C68.978 39 68.25 38.272 68.25 37.375V27.625C68.25 26.728 67.5188 26 66.625 26H8.125C5.93125 26 3.89025 25.1452 2.37575 23.5917C0.85475 22.1097 0 20.0687 0 17.875C0 13.3965 3.64325 9.75 8.125 9.75H35.9125C36.8095 9.75 37.5375 10.478 37.5375 11.375C37.5375 12.272 36.8095 13 35.9125 13H8.125C5.43725 13 3.25 15.1872 3.25 17.875C3.25 19.1847 3.757 20.397 4.6735 21.294C5.603 22.243 6.8185 22.75 8.125 22.75H66.625C69.3128 22.75 71.5 24.9372 71.5 27.625V37.375C71.5 38.272 70.772 39 69.875 39Z" fill="#1B2F78"/>
<path d="M60.125 26C59.228 26 58.5 25.272 58.5 24.375V14.625C58.5 13.728 57.7687 13 56.875 13H50.9275C50.0305 13 49.3025 12.272 49.3025 11.375C49.3025 10.478 50.0305 9.75 50.9275 9.75H56.875C59.5627 9.75 61.75 11.9373 61.75 14.625V24.375C61.75 25.272 61.022 26 60.125 26Z" fill="#1B2F78"/>
<path d="M58.4999 26C57.9409 26 57.3982 25.7107 57.0959 25.194L46.5497 7.1142L15.4602 25.7692C14.6997 26.2307 13.6954 25.9837 13.2307 25.2102C12.7692 24.4432 13.0194 23.4422 13.7897 22.9807L46.2897 3.4807C46.6602 3.25645 47.1087 3.19795 47.5279 3.2987C47.9504 3.40595 48.3079 3.67895 48.5289 4.0527L59.9039 23.5527C60.3589 24.3295 60.0957 25.324 59.3189 25.7757C59.0622 25.9285 58.7794 26 58.4999 26V26Z" fill="#1B2F78"/>
<path d="M76.375 58.5H60.125C53.8525 58.5 48.75 53.3975 48.75 47.125C48.75 40.8525 53.8525 35.75 60.125 35.75H76.375C77.272 35.75 78 36.478 78 37.375V56.875C78 57.772 77.272 58.5 76.375 58.5ZM60.125 39C55.6432 39 52 42.6465 52 47.125C52 51.6035 55.6432 55.25 60.125 55.25H74.75V39H60.125Z" fill="#1B2F78"/>
<path d="M60.125 52C57.4372 52 55.25 49.8128 55.25 47.125C55.25 44.4372 57.4372 42.25 60.125 42.25C62.8128 42.25 65 44.4372 65 47.125C65 49.8128 62.8128 52 60.125 52ZM60.125 45.5C59.2312 45.5 58.5 46.228 58.5 47.125C58.5 48.022 59.2312 48.75 60.125 48.75C61.0188 48.75 61.75 48.022 61.75 47.125C61.75 46.228 61.0188 45.5 60.125 45.5Z" fill="#1B2F78"/>
</g>
<defs>
<clipPath id="clip0_8071_565">
<rect width="78" height="78" fill="white"/>
</clipPath>
</defs>
</svg>
