<svg width="78" height="78" viewBox="0 0 78 78" fill="none" xmlns="http://www.w3.org/2000/svg">
<path d="M47.125 68.25H34.125C29.6465 68.25 26 64.6035 26 60.125V53.625C26 52.728 26.728 52 27.625 52C28.522 52 29.25 52.728 29.25 53.625V60.125C29.25 62.8128 31.4373 65 34.125 65H47.125C48.022 65 48.75 65.728 48.75 66.625C48.75 67.522 48.022 68.25 47.125 68.25Z" fill="#1B2F78"/>
<path d="M34.125 35.75H1.625C0.728 35.75 0 35.022 0 34.125C0 33.228 0.728 32.5 1.625 32.5H34.125C35.022 32.5 35.75 33.228 35.75 34.125C35.75 35.022 35.022 35.75 34.125 35.75Z" fill="#1B2F78"/>
<path d="M52 78C48.4152 78 45.5 75.0847 45.5 71.5V13C45.5 10.205 47.294 7.73175 49.9623 6.84125L69.4622 0.34125C70.0797 0.12025 70.7785 0 71.5 0C75.0848 0 78 2.91525 78 6.5V65C78 67.7917 76.2093 70.2682 73.541 71.1555L54.041 77.6555C53.4138 77.8797 52.715 78 52 78V78ZM71.5 3.25C71.162 3.25 70.824 3.3085 70.525 3.4125L50.9893 9.9255C49.647 10.3707 48.75 11.6057 48.75 13V71.5C48.75 73.2907 50.2093 74.75 52 74.75C52.338 74.75 52.676 74.6915 52.9815 74.5842L72.514 68.0745C73.8498 67.626 74.75 66.391 74.75 65V6.5C74.75 4.70925 73.2907 3.25 71.5 3.25V3.25Z" fill="#1B2F78"/>
<path d="M27.625 16.25C26.728 16.25 26 15.522 26 14.625V8.125C26 3.6465 29.6465 0 34.125 0H71.5C72.397 0 73.125 0.728 73.125 1.625C73.125 2.522 72.397 3.25 71.5 3.25H34.125C31.4372 3.25 29.25 5.43725 29.25 8.125V14.625C29.25 15.522 28.522 16.25 27.625 16.25Z" fill="#1B2F78"/>
<path d="M21.1251 48.75C20.7091 48.75 20.2931 48.5908 19.9746 48.2755C19.3408 47.6418 19.3408 46.6115 19.9746 45.9778L31.8273 34.125L19.9746 22.2755C19.3408 21.6418 19.3408 20.6115 19.9746 19.9778C20.6083 19.344 21.6386 19.344 22.2723 19.9778L35.2723 32.9778C35.9061 33.6115 35.9061 34.6418 35.2723 35.2755L22.2723 48.2755C21.9571 48.5908 21.5411 48.75 21.1251 48.75V48.75Z" fill="#1B2F78"/>
</svg>
