<svg width="75" height="85" viewBox="0 0 75 85" fill="none" xmlns="http://www.w3.org/2000/svg">
<g clip-path="url(#clip0_615_6080)">
<path d="M72.2338 53.4727V38.396C72.2338 34.6182 69.1023 31.5273 65.2749 31.5273H34.7425V24.6758H31.9589V18.7172L51.8441 10.1313C52.5383 9.83308 53.1289 9.34087 53.5432 8.71537C53.9574 8.08986 54.1772 7.35839 54.1754 6.61111V3.8293C54.1754 1.42525 51.8441 -0.463634 49.4085 0.0858612L15.7272 7.77879C14.8132 7.98894 13.9987 8.4993 13.4171 9.22624C12.8355 9.95317 12.5213 10.8535 12.5261 11.7798V24.6758H9.74251V82.2525H5.56714V85H38.9179V82.2525H34.7425V45.2475H58.3507V53.4727C57.6125 53.4727 56.9045 53.7622 56.3825 54.2774C55.8604 54.7927 55.5672 55.4915 55.5672 56.2202V58.9505C55.5672 59.6792 55.8604 60.378 56.3825 60.8933C56.9045 61.4085 57.6125 61.698 58.3507 61.698H72.2512C72.9895 61.698 73.6975 61.4085 74.2195 60.8933C74.7415 60.378 75.0348 59.6792 75.0348 58.9505V56.203C75.0348 55.4744 74.7415 54.7755 74.2195 54.2603C73.6975 53.745 72.9895 53.4556 72.2512 53.4556L72.2338 53.4727ZM15.2749 11.7798C15.2747 11.469 15.3812 11.1674 15.5771 10.9241C15.773 10.6808 16.0467 10.5103 16.3535 10.4404L50.0348 2.76465C50.7307 2.6101 51.3918 3.14243 51.3918 3.8293V6.61111C51.3918 7.04041 51.1308 7.43536 50.7307 7.60707L29.158 16.9313V24.6758H15.2923V11.7798H15.2749ZM58.3333 42.5H31.9415V82.2525H12.5261V27.4232H31.9589V34.2747H65.3097C66.4171 34.2747 67.4791 34.709 68.2621 35.4818C69.0452 36.2547 69.4851 37.3029 69.4851 38.396V53.4727H61.1343V45.2303C61.1297 44.5046 60.8344 43.8102 60.3129 43.2986C59.7914 42.7871 59.086 42.5 58.3507 42.5H58.3333ZM58.3333 58.9505V56.203H72.2338V58.9505H58.3333Z" fill="white"/>
<path d="M15.2749 30.1535H18.0585V32.901H15.2749V30.1535ZM15.2749 35.6485H18.0585V79.5051H15.2749V35.6485ZM65.2923 62.7455L59.064 75.0061C58.5278 76.0532 58.2724 77.2185 58.322 78.3908C58.3716 79.5631 58.7246 80.7033 59.3474 81.7027C59.9702 82.7021 60.842 83.5274 61.8796 84.0998C62.9172 84.6723 64.0862 84.9729 65.2749 84.9729C66.4636 84.9729 67.6325 84.6723 68.6702 84.0998C69.7078 83.5274 70.5796 82.7021 71.2023 81.7027C71.8251 80.7033 72.1781 79.5631 72.2278 78.3908C72.2774 77.2185 72.0219 76.0532 71.4857 75.0061L65.2749 62.7455H65.2923ZM65.2923 82.2525C64.738 82.2526 64.1894 82.1438 63.6782 81.9324C63.167 81.721 62.7036 81.4113 62.315 81.0213C61.9263 80.6313 61.6202 80.1688 61.4145 79.6608C61.2088 79.1529 61.1077 78.6096 61.1169 78.0626C61.1169 77.4273 61.2735 76.7919 61.5518 76.2253L65.2749 68.8758L69.0153 76.2253C69.2937 76.7919 69.4502 77.4273 69.4502 78.1485C69.4502 79.2415 69.0103 80.2897 68.2273 81.0626C67.4443 81.8355 66.3823 82.2697 65.2749 82.2697L65.2923 82.2525ZM0 82.2525H2.78358V85H0V82.2525ZM41.6667 82.2525H44.4502V85H41.6667V82.2525Z" fill="white"/>
</g>
<defs>
<clipPath id="clip0_615_6080">
<rect width="75" height="85" fill="white"/>
</clipPath>
</defs>
</svg>
