<svg width="70" height="84" viewBox="0 0 70 84" fill="none" xmlns="http://www.w3.org/2000/svg">
<path d="M51.143 52.4286L46.8572 48.1429C48.5715 46.8572 50.0001 45.2857 51.143 43.5715C60.0001 41.4286 61.8572 37.8572 61.8572 35.1429C61.8572 18.1429 53.4287 0.857178 34.7144 0.857178C16.0001 0.857178 7.71439 18.2858 7.71439 35.2858C7.71439 42 15.8572 43.5715 18.7144 44.1429C19.8572 45.7143 21.143 47.1429 22.7144 48.2857L18.5715 52.4286C8.85725 52.8572 0.571533 60.5715 0.571533 69.5715V82.4286C0.571533 83.2857 1.14296 83.8572 2.0001 83.8572H67.7144C68.5715 83.8572 69.143 83.2857 69.143 82.4286V69.5715C69.143 60.5715 60.8572 52.8572 51.143 52.4286ZM36.7144 81L40.7144 67.4286L44.0001 69.2857C44.4287 69.5715 44.5715 69.5715 44.8572 69.5715C45.0001 69.5715 45.143 69.5715 45.2858 69.4286C45.7144 69.2858 46.0001 69 46.143 68.5715L51.4287 55.2857C53.143 55.4286 54.7144 55.7143 56.2858 56.4286V56.5715L54.7144 68.8572L50.8572 66.8572C50.143 66.5715 49.4287 66.7143 49.0001 67.4286L40.7144 81H36.7144ZM28.5715 81L20.4287 67.4286C20.0001 66.8572 19.2858 66.5715 18.5715 66.8572L14.7144 68.8572L13.4287 56.5715V56.4286C15.0001 55.8572 16.5715 55.4286 18.2858 55.2857L23.5715 68.5715C23.7144 69 24.0001 69.2858 24.4287 69.4286C24.8572 69.5715 25.2858 69.5715 25.5715 69.2857L28.8572 67.4286L32.8572 81H28.5715ZM34.8572 64.1429L38.2858 66.1429L34.8572 77.5715L31.4287 66.1429L34.8572 64.1429ZM36.8572 62L45.0001 50.4286L48.8572 54.2857L44.143 66.1429L36.8572 62ZM34.8572 60L29.0001 51.5715C30.8572 52.1429 32.8572 52.4286 34.8572 52.4286C36.8572 52.4286 38.8572 52.1429 40.7144 51.4286L34.8572 60ZM32.8572 62L25.5715 66.1429L20.8572 54.2857L24.7144 50.4286L32.8572 62ZM10.5715 35.2858C10.5715 23.5715 15.7144 3.85718 34.8572 3.85718C54.0001 3.85718 59.143 23.5715 59.143 35.2858C59.143 37.1429 57.0001 38.8572 53.2858 40.1429C54.2858 37.7143 54.8572 35.1429 54.8572 32.4286C54.8572 26.4286 53.2858 24.5715 53.0001 24.2857C52.7144 24 52.4287 23.8572 52.0001 23.8572C51.8572 23.8572 43.4287 23.8572 33.8572 21C25.0001 18.4286 22.8572 15.5715 22.8572 15.5715C22.5715 15.2857 22.2858 15 21.8572 15C21.4287 15 21.0001 15.1429 20.7144 15.2858C13.8572 21.4286 14.8572 31.2858 15.0001 32.4286C15.0001 35.4286 15.7144 38.1429 16.8572 40.7143C10.5715 39 10.5715 36.2858 10.5715 35.2858ZM47.7144 29.2857C47.5715 27.8572 46.4287 26.7143 44.8572 26.7143H39.143C37.5715 26.7143 36.2858 28 36.2858 29.5715H33.4287C33.4287 28 32.143 26.7143 30.5715 26.7143H24.8572C23.4287 26.7143 22.143 27.8572 22.0001 29.2857L17.7144 28.4286C18.0001 25.5715 18.8572 21.5715 21.5715 18.5715C23.143 19.8572 26.4287 22 33.0001 23.8572C41.4287 26.2858 48.7144 26.7143 51.143 26.7143C51.2858 27 51.4287 27.5715 51.7144 28.4286L47.7144 29.2857ZM44.8572 29.5715V32.4286H39.143V29.5715H44.8572ZM30.5715 29.5715V32.4286H24.8572V29.5715H30.5715ZM17.7144 32.4286V32.2857C17.7144 32.2857 17.7144 31.8572 17.5715 31.2858L22.0001 32.1429V32.4286C22.0001 34 23.2858 35.2858 24.8572 35.2858H30.5715C32.143 35.2858 33.4287 34 33.4287 32.4286H36.2858C36.2858 34 37.5715 35.2858 39.143 35.2858H44.8572C46.4287 35.2858 47.7144 34 47.7144 32.4286V32.1429L52.0001 31.2858C52.0001 31.5715 52.0001 32 52.0001 32.4286C52.0001 41.7143 44.143 49.5715 34.8572 49.5715C25.4287 49.5715 17.7144 41.8572 17.7144 32.4286ZM3.42868 69.5715C3.42868 65 6.28582 60.5715 10.4287 58L12.0001 71.2857V71.4286V71.5715C12.0001 71.5715 12.0001 71.7143 12.143 71.7143C12.143 71.7143 12.143 71.8572 12.2858 71.8572C12.2858 71.8572 12.2858 72 12.4287 72L12.5715 72.1429C12.5715 72.1429 12.7144 72.1429 12.7144 72.2858L12.8572 72.4286C13.0001 72.4286 13.143 72.4286 13.4287 72.4286C13.7144 72.4286 13.8572 72.4286 14.143 72.2858L18.7144 70L25.2858 81H3.42868V69.5715ZM66.2858 81H44.0001L50.5715 70L55.143 72.2858C55.5715 72.4286 56.0001 72.4286 56.4287 72.2858C56.8572 72 57.143 71.7143 57.143 71.1429L58.8572 57.7143C63.143 60.2857 66.143 64.8572 66.143 69.5715V81H66.2858Z" fill="#1B2F78"/>
<path d="M34.8571 45.2857C38.1428 45.2857 40 43.5714 40.1428 43.4286C40.7143 42.8571 40.7143 42 40.1428 41.4286C39.5714 40.8571 38.7143 40.8571 38.1428 41.4286C38.1428 41.4286 37 42.4286 34.8571 42.4286C32.7143 42.4286 31.5714 41.4286 31.5714 41.4286C31 40.8571 30.1428 40.8571 29.5714 41.4286C29 42 29 42.8571 29.5714 43.4286C29.7143 43.5714 31.5714 45.2857 34.8571 45.2857Z" fill="#1B2F78"/>
</svg>
