<svg width="14" height="14" viewBox="0 0 14 14" fill="none" xmlns="http://www.w3.org/2000/svg">
<path d="M13.9261 12.3184L7.47353 1.13453C7.26356 0.770643 6.73665 0.769877 6.52626 1.13453L0.0737658 12.3184C-0.135769 12.6817 0.125774 13.1387 0.547387 13.1387H13.4524C13.8717 13.1387 14.1367 12.6837 13.9261 12.3184ZM1.49425 12.0449L6.99991 2.50213L12.5056 12.0449H1.49425ZM7.54679 10.1541C7.54679 10.4561 7.30195 10.701 6.99991 10.701C6.69787 10.701 6.45304 10.4561 6.45304 10.1541C6.45304 9.85205 6.69787 9.60722 6.99991 9.60722C7.30192 9.60722 7.54679 9.85205 7.54679 10.1541ZM6.99991 5.48618C7.30195 5.48618 7.54679 5.73102 7.54679 6.03306V8.51347C7.54679 8.81551 7.30195 9.06034 6.99991 9.06034C6.69787 9.06034 6.45304 8.81551 6.45304 8.51347V6.03306C6.45304 5.73102 6.69787 5.48618 6.99991 5.48618Z" fill="white"/>
</svg>
