<svg width="85" height="85" viewBox="0 0 85 85" fill="none" xmlns="http://www.w3.org/2000/svg">
<g clip-path="url(#clip0_615_5824)">
<path d="M44.266 15.5495C44.266 18.371 43.43 20.7327 42.4895 20.7327C41.549 20.7327 40.7339 18.371 40.7339 15.5495C40.7339 12.6862 41.5699 10.4709 42.4895 10.4709C43.43 10.4709 44.266 12.6862 44.266 15.5495ZM62.4907 24.641C60.4634 26.6683 58.3316 27.7342 57.6419 26.8982C56.9313 26.2921 57.9972 24.1812 60.0036 22.1748C62.0309 20.1475 64.1627 19.0816 64.8524 19.6877C65.563 20.3774 64.4971 22.6346 62.4907 24.641ZM68.9906 43.9316C66.1691 43.9316 63.9328 42.9702 63.9328 42.0297C63.9328 41.0893 66.1691 40.3787 68.9906 40.3787C71.833 40.3787 74.1947 41.1102 74.1947 42.0297C74.1947 42.9493 71.833 43.9316 68.9906 43.9316ZM49.7208 12.8325C49.5954 13.6685 48.7594 14.1283 47.9444 14.0029C47.1084 13.8984 46.5232 13.0624 46.6277 12.2264C46.8785 11.3905 47.6935 10.8053 48.5295 11.0352C49.3446 11.1606 49.8253 11.9965 49.7208 12.8325ZM55.1548 14.7135C54.8204 15.5495 53.859 15.7794 53.1484 15.5495C52.7619 15.3963 52.449 15.1006 52.274 14.7234C52.099 14.3462 52.0754 13.9163 52.2079 13.5222C52.5423 12.6862 53.5037 12.3518 54.2143 12.6862C55.0294 13.0624 55.4056 13.8984 55.1548 14.7135ZM60.0036 17.5559C59.6692 18.2665 58.6033 18.4964 57.8718 18.0157C57.1612 17.5559 57.0358 16.6154 57.5374 15.8839C57.8718 15.1733 58.8332 14.9434 59.5438 15.4241C60.3589 15.8839 60.4634 16.8453 60.0036 17.5559ZM67.9247 25.8323C67.2141 26.2921 66.2945 26.1876 65.7929 25.477C65.2077 24.7664 65.4585 23.8259 66.1482 23.3452C66.8588 22.7391 67.7993 23.0108 68.28 23.7005C68.7398 24.3066 68.6353 25.3725 67.9247 25.8323ZM70.5372 30.911C69.7012 31.2454 68.8861 30.911 68.5099 30.1795C68.1755 29.3644 68.5099 28.4239 69.2414 28.1731C70.0565 27.8178 70.8716 28.0477 71.2478 28.8837C71.6031 29.7197 71.2478 30.5557 70.5372 30.911ZM72.0629 36.345C71.2269 36.5749 70.4118 36.1151 70.2864 35.2791C70.0356 34.4431 70.5163 33.6489 71.3523 33.3772C72.1674 33.2727 72.9825 33.7325 73.2333 34.5685C73.505 35.4045 72.8989 36.2405 72.0629 36.345ZM22.4046 24.3066C24.411 26.313 26.6682 27.3789 27.2325 26.7728C27.964 26.0622 26.8981 23.805 24.8708 21.8195C22.8644 19.8131 20.7535 18.7472 20.022 19.4369C19.3115 20.1475 20.3773 22.2793 22.4046 24.3066ZM15.8839 43.5554C18.7054 43.5554 21.0879 42.8448 21.0879 41.9043C21.0879 40.8384 18.7263 40.0234 15.8839 40.0234C13.0624 40.0234 10.7007 40.8384 10.7007 41.9043C10.7007 42.8657 13.0624 43.5554 15.8839 43.5554ZM35.1745 12.5817C35.4044 13.4177 36.115 13.982 36.951 13.7521C37.8915 13.6476 38.3722 12.8116 38.2468 11.9965C38.0169 11.1606 37.3063 10.5754 36.4912 10.7008C35.6552 10.9307 35.0491 11.7667 35.1745 12.5817ZM29.845 14.4836C30.0749 15.1942 31.0154 15.654 31.726 15.2987C32.562 15.0688 32.9173 14.1283 32.6874 13.2923C32.3321 12.5817 31.3916 12.101 30.6601 12.4563C29.845 12.6862 29.4897 13.6476 29.845 14.4836ZM24.8708 17.3051C25.2261 18.0157 26.1666 18.2456 26.8981 17.7649C27.7341 17.3051 27.8386 16.3437 27.3579 15.6331C27.0026 14.9225 25.9367 14.6926 25.2261 15.1733C24.6409 15.654 24.411 16.6154 24.8708 17.3051ZM17.0752 25.6024C17.6604 26.0622 18.6009 25.9368 19.207 25.2471C19.6668 24.5365 19.4369 23.596 18.7263 23.1153C18.162 22.6555 17.0961 22.76 16.5945 23.4706C16.1138 24.1603 16.2601 25.1217 17.0752 25.6024ZM14.3582 30.6811C15.1942 31.0155 16.1347 30.6811 16.49 29.9496C16.7199 29.1136 16.49 28.3194 15.654 27.8178C14.818 27.4834 14.0029 27.8178 13.6267 28.6538C13.2923 29.3853 13.6267 30.3258 14.3582 30.6811ZM12.7071 36.2405C13.6476 36.345 14.4627 35.8852 14.609 35.0492C14.8389 34.2132 14.3791 33.3981 13.5431 33.2727C12.7071 32.9174 11.892 33.5026 11.6412 34.3386C11.4949 35.1746 11.9965 36.0106 12.7071 36.2405ZM34.3385 40.3787L38.9365 39.6681L33.6279 21.2134L34.3385 40.3787ZM42.4895 42.0297C30.3048 42.0297 19.5414 47.7145 12.3309 56.4716C17.535 67.8203 29.1344 75.8667 42.4895 75.8667C55.8654 75.8667 67.444 67.8203 72.6481 56.4716C65.4585 47.7145 54.6741 42.0297 42.4895 42.0297ZM44.9975 73.3587V44.6213C54.4442 45.3528 63.3267 49.5955 69.7221 56.806C64.8524 66.1483 55.5101 72.4391 44.9975 73.3587Z" fill="white"/>
<path d="M42.5105 85C19.0607 85 0 65.9393 0 42.5105C0 19.0816 19.0607 0 42.5105 0C65.9602 0 85.0209 19.0607 85.0209 42.5105C85.0209 65.9602 65.9393 85 42.5105 85ZM42.5105 4.40988C21.506 4.40988 4.43078 21.4851 4.43078 42.4896C4.43078 63.494 21.506 80.5692 42.5105 80.5692C63.5149 80.5692 80.5901 63.494 80.5901 42.4896C80.5901 21.506 63.494 4.40988 42.5105 4.40988Z" fill="white"/>
</g>
<defs>
<clipPath id="clip0_615_5824">
<rect width="85" height="85" fill="white"/>
</clipPath>
</defs>
</svg>
