<svg width="85" height="73" viewBox="0 0 85 73" fill="none" xmlns="http://www.w3.org/2000/svg">
<g clip-path="url(#clip0_615_6064)">
<path d="M70.8333 38.0869V63.4782C70.8333 64.2717 70.2036 65.0652 69.2592 65.0652H62.9629" fill="white"/>
<path d="M80.2778 31.7391C80.75 31.7391 81.0648 31.8978 81.3796 32.2152C81.537 32.2152 81.8519 32.6913 81.8519 33.1674C81.8519 33.4848 81.8519 33.8022 81.3796 34.1196L76.6574 38.4044C76.3444 38.7131 76.0988 39.0843 75.9362 39.4941C75.7736 39.904 75.6975 40.3436 75.713 40.7848V63.4783C75.7135 65.1347 75.0718 66.7257 73.9248 67.9117C72.7779 69.0977 71.2165 69.7847 69.5741 69.8261H56.9815C56.1285 69.8691 55.2758 69.7368 54.4752 69.4371C53.6746 69.1374 52.9428 68.6767 52.3244 68.0829C51.706 67.4891 51.2138 66.7747 50.8779 65.9831C50.542 65.1915 50.3693 64.3393 50.3704 63.4783V36.1826C50.3704 33.8022 52.4167 31.7391 54.9352 31.7391H80.2778ZM80.2778 28.5652H55.0926C54.0872 28.5441 53.0878 28.7255 52.1528 29.0989C51.2179 29.4722 50.3663 30.03 49.648 30.7394C48.9296 31.4489 48.359 32.2958 47.9694 33.2304C47.5799 34.1651 47.3794 35.1688 47.3796 36.1826V63.4783C47.3795 64.7421 47.6289 65.9934 48.1133 67.1591C48.5978 68.3248 49.3075 69.3816 50.2013 70.2679C51.095 71.1542 52.1548 71.8522 53.3189 72.3213C54.483 72.7903 55.728 73.0211 56.9815 73H69.7315C72.2363 73 74.6385 71.9968 76.4097 70.2111C78.1809 68.4255 79.1759 66.0036 79.1759 63.4783V40.7848L83.8982 36.3413C84.6852 35.5478 85.1574 34.437 85.1574 33.1674C85.1166 31.9324 84.6011 30.7619 83.7199 29.9031C82.8387 29.0443 81.6608 28.5645 80.4352 28.5652H80.2778Z" fill="white"/>
<path d="M22.037 41.2609L7.87036 65.0652H22.037" fill="white"/>
<path d="M10.2316 9.52173C12.4049 9.52173 14.1668 7.74547 14.1668 5.55434C14.1668 3.36321 12.4049 1.58694 10.2316 1.58694C8.05823 1.58694 6.29639 3.36321 6.29639 5.55434C6.29639 7.74547 8.05823 9.52173 10.2316 9.52173Z" fill="white"/>
<path d="M75.5555 23.8044C78.1635 23.8044 80.2777 21.6728 80.2777 19.0435C80.2777 16.4141 78.1635 14.2826 75.5555 14.2826C72.9475 14.2826 70.8333 16.4141 70.8333 19.0435C70.8333 21.6728 72.9475 23.8044 75.5555 23.8044Z" fill="white"/>
<path d="M67.6853 7.93477C69.4239 7.93477 70.8334 6.51376 70.8334 4.76086C70.8334 3.00795 69.4239 1.58694 67.6853 1.58694C65.9466 1.58694 64.5371 3.00795 64.5371 4.76086C64.5371 6.51376 65.9466 7.93477 67.6853 7.93477Z" fill="white"/>
<path d="M4.72212 26.1848C6.4608 26.1848 7.87027 24.7638 7.87027 23.0109C7.87027 21.258 6.4608 19.8369 4.72212 19.8369C2.98345 19.8369 1.57397 21.258 1.57397 23.0109C1.57397 24.7638 2.98345 26.1848 4.72212 26.1848Z" fill="white"/>
<path d="M0 30.1522H3.14815V33.3261H0V30.1522ZM6.2963 39.6739H9.44444V42.8478H6.2963V39.6739ZM34.6296 22.2174H37.7778V25.3913H34.6296V22.2174ZM37.7778 28.5652H40.9259V31.7391H37.7778V28.5652ZM40.9259 36.5H44.0741V39.6739H40.9259V36.5ZM31.4815 53.9565H34.6296V57.1305H31.4815V53.9565ZM34.6296 60.3044H37.7778V63.4783H34.6296V60.3044ZM53.5185 63.4783H56.6667V66.6522H53.5185V63.4783ZM53.5185 57.1305H59.8148V60.3044H53.5185V57.1305ZM53.5185 50.7826H56.6667V53.9565H53.5185V50.7826ZM53.5185 44.4348H59.8148V47.6087H53.5185V44.4348Z" fill="white"/>
<path d="M29.9074 31.7391V14.2826H20.4629V31.7391L2.6759 62.3674C2.21372 63.3569 2.01298 64.45 2.09314 65.5408C2.17329 66.6315 2.53163 67.6828 3.13339 68.5929C3.73516 69.5029 4.55994 70.2408 5.52777 70.7349C6.4956 71.229 7.57365 71.4626 8.65738 71.4131H42.1852C46.75 71.4131 49.7407 66.6522 47.8518 62.3674L29.9074 31.7391Z" fill="white"/>
<path d="M62.0186 25.3913C58.3276 21.8565 53.7601 19.3896 48.7964 18.25V1.58694H36.2038V18.25C34.0001 18.7261 31.9538 19.5196 29.9075 20.4717" fill="white"/>
</g>
<defs>
<clipPath id="clip0_615_6064">
<rect width="85" height="73" fill="white"/>
</clipPath>
</defs>
</svg>
