<svg width="85" height="44" viewBox="0 0 85 44" fill="none" xmlns="http://www.w3.org/2000/svg">
<g clip-path="url(#clip0_615_6075)">
<path d="M9.19913 13.7613H5.88745C2.57576 13.7613 0 20.4609 0 28.9712C0 37.3004 2.57576 44 5.70346 44H9.38312C6.07143 44 3.49567 37.3004 3.49567 28.9712C3.49567 20.4609 6.07143 13.7613 9.38312 13.7613H9.19913Z" fill="white"/>
<path d="M11.4069 37.4815C9.5671 36.214 8.83117 32.2305 8.83117 28.9712C8.83117 25.5309 9.5671 21.7284 11.4069 20.2798H15.4545C14.7186 16.2963 12.8788 13.7613 11.039 13.7613C7.3593 13.7613 4.96753 20.4609 4.96753 28.9712C4.96753 37.3004 7.54329 44 10.855 44C12.6948 44 14.5346 41.465 15.4545 37.4815H11.4069ZM11.2229 15.391C11.9589 15.391 12.5108 16.1152 12.5108 17.2017C12.5108 18.2881 11.9589 19.0124 11.2229 19.0124C10.487 19.0124 9.75108 18.2881 9.75108 17.2017C9.75108 16.1152 10.487 15.391 11.2229 15.391ZM6.99134 30.0576C6.43939 30.0576 5.88744 29.3333 5.88744 28.2469C5.88744 27.3416 6.43939 26.4362 6.99134 26.4362C7.54329 26.4362 8.09524 27.3416 8.09524 28.2469C8.09524 29.3333 7.54329 30.0576 6.99134 30.0576ZM11.2229 42.1893C10.487 42.1893 9.75108 41.284 9.75108 40.3786C9.75108 39.2922 10.487 38.5679 11.2229 38.5679C11.9589 38.5679 12.5108 39.2922 12.5108 40.3786C12.5108 41.284 11.9589 42.1893 11.2229 42.1893ZM75.4329 13.7613H79.1126C82.4242 13.7613 85 20.4609 85 28.9712C85 37.3004 82.4242 44 79.2965 44H75.6169C78.7446 44 81.3204 37.3004 81.3204 28.9712C81.3204 20.4609 78.7446 13.7613 75.6169 13.7613H75.4329Z" fill="white"/>
<path d="M74.1451 13.7613C72.3053 13.7613 70.4654 16.2963 69.3615 20.2798H73.5931C75.433 21.5473 76.1689 25.5309 76.1689 28.9712C76.1689 32.2305 75.249 36.214 73.4091 37.4815H69.3615C70.4654 41.465 72.1213 44 74.1451 44C77.2728 44 79.8485 37.3004 79.8485 28.9712C79.8485 20.4609 77.2728 13.7613 74.1451 13.7613ZM73.7771 19.1934C73.0412 19.1934 72.4892 18.2881 72.4892 17.2017C72.4892 16.1152 73.0412 15.391 73.7771 15.391C74.513 15.391 75.065 16.1152 75.065 17.2017C75.065 18.2881 74.513 19.0124 73.7771 19.0124V19.1934ZM73.7771 42.1893C73.0412 42.1893 72.4892 41.284 72.4892 40.3786C72.4892 39.2922 73.0412 38.5679 73.7771 38.5679C74.513 38.5679 75.065 39.2922 75.065 40.3786C75.065 41.284 74.513 42.1893 73.7771 42.1893ZM77.8247 30.0576C77.2728 30.0576 76.9048 29.3333 76.9048 28.2469C76.9048 27.3416 77.2728 26.4362 77.8247 26.4362C78.5607 26.4362 78.9286 27.3416 78.9286 28.2469C78.9286 29.3333 78.5607 30.0576 77.8247 30.0576ZM57.7706 18.2881C47.742 20.7344 37.2581 20.7344 27.2295 18.2881C25.7082 19.4863 24.4743 21.0001 23.6157 22.7215C22.757 24.4429 22.2948 26.3296 22.262 28.2469C22.262 36.5761 31.4611 43.2757 42.5001 43.2757C53.539 43.2757 62.7381 36.5761 62.7381 28.2469C62.7381 24.4445 60.8983 21.0041 57.7706 18.2881ZM41.7641 40.1975C34.4048 40.1975 28.1494 36.7572 25.5736 32.0494C28.7014 35.4897 34.0369 37.6626 39.9243 37.6626C49.6754 37.6626 57.4027 31.8683 57.4027 24.6255C57.4027 22.9959 57.0347 21.3663 56.2988 19.9177C58.1572 21.8901 59.2061 24.4708 59.2425 27.1605C59.2425 34.4033 51.5152 40.1975 41.7641 40.1975Z" fill="white"/>
<path d="M22.6299 35.8518C21.2709 33.8313 20.486 31.4897 20.3566 29.0699C20.2272 26.6501 20.758 24.2403 21.894 22.0905H13.2468C11.7749 22.0905 10.4871 25.1687 10.4871 28.9712C10.4871 32.5926 11.7749 35.8518 13.0628 35.8518H22.4459H22.6299ZM71.7533 22.0905H63.1061C64.2053 24.2505 64.7154 26.6545 64.5864 29.0669C64.4574 31.4793 63.6937 33.8174 62.3702 35.8518H71.7533C73.2252 35.8518 74.513 32.5926 74.513 28.7901C74.513 25.1687 73.2252 22.0905 71.7533 22.0905ZM42.3161 0C30.5412 0 17.4784 3.07819 17.4784 9.59671C17.4784 16.1152 30.3572 19.1934 42.684 19.1934C54.8269 19.1934 67.8897 16.1152 67.8897 9.59671C67.7057 3.07819 54.6429 0 42.3161 0ZM44.5239 6.88066C46.3637 7.42387 47.2836 8.69136 47.2836 9.41564C47.2836 10.6831 45.2598 11.7695 42.684 11.7695C41.5379 11.7852 40.4039 11.5372 39.3723 11.0453L41.9481 11.4074C44.3399 11.4074 46.5477 10.321 46.5477 9.23457C46.5477 8.51029 45.8117 7.42387 44.7078 6.88066H44.5239ZM44.5239 5.79424L42.684 5.4321C40.8442 5.4321 39.0044 6.15638 37.9005 6.88066L31.4611 5.4321C36.3101 4.53003 41.2543 4.22591 46.1797 4.52675L44.7078 5.79424H44.5239ZM39.5563 12.3128C42.0643 12.9396 44.7111 12.749 47.0996 11.7695L54.6429 13.5802C48.7779 14.7912 42.7571 15.0966 36.7966 14.4856L39.7403 12.3128H39.5563ZM49.1234 9.41564C49.1234 8.69136 48.3875 7.78601 47.2836 7.06173L50.5953 4.88889C58.6905 5.97531 63.1061 8.51029 63.1061 9.59671C63.1061 10.1399 62.0022 11.0453 59.7944 11.9506L49.1234 9.41564ZM21.526 7.96708V8.69136C21.1581 7.78601 21.1581 7.60494 21.342 7.2428C21.526 5.97531 27.4135 2.71605 40.8442 2.71605C52.9871 2.71605 59.9784 5.25103 61.0823 6.69959C58.5065 5.25103 52.0671 3.6214 42.3161 3.6214C28.8853 3.6214 22.078 6.69959 21.71 7.96708H21.526ZM21.894 9.59671C21.894 8.87243 23.1819 7.78601 25.9416 6.88066L35.8767 9.23457V9.59671C35.8767 10.1399 36.0607 10.6831 36.6126 11.0453L32.565 13.9424C25.5736 12.856 21.894 10.6831 21.894 9.59671ZM43.236 18.107C34.9568 18.107 26.1256 16.6584 22.4459 13.3992C26.6775 15.9342 34.5888 17.0206 42.1321 17.0206C52.8031 17.0206 64.578 14.6667 64.578 9.0535C64.578 7.78601 64.026 6.51852 62.7381 5.61317C64.578 6.69959 65.8658 8.14815 65.8658 9.95885C65.8658 15.572 54.091 18.107 43.236 18.107Z" fill="white"/>
</g>
<defs>
<clipPath id="clip0_615_6075">
<rect width="85" height="44" fill="white"/>
</clipPath>
</defs>
</svg>
