<svg width="85" height="53" viewBox="0 0 85 53" fill="none" xmlns="http://www.w3.org/2000/svg">
<g clip-path="url(#clip0_615_6087)">
<path d="M52.8418 0L43.0065 2.42123V6.92543L0 19.0138V20.4558L15.1766 36.4075L48.182 28.04L49.8397 6.28451L52.8418 2.58146V0Z" fill="white"/>
<path d="M38.8441 6.28451C38.181 6.28451 6.17017 15.5065 6.17017 15.5065L10.4984 8.86597L15.8397 7.58415L19.6707 0L38.8441 6.28451ZM67.3923 38.081C63.1377 38.081 59.675 41.4279 59.675 45.5405C59.675 49.653 63.1377 53 67.3923 53C69.439 53 71.4019 52.2141 72.8492 50.8152C74.2964 49.4162 75.1095 47.5189 75.1095 45.5405C75.1095 43.5621 74.2964 41.6647 72.8492 40.2658C71.4019 38.8669 69.439 38.081 67.3923 38.081ZM68.9578 47.1784C68.5526 47.5344 68.0001 47.7659 67.3923 47.7659C66.7845 47.7659 66.2503 47.5344 65.8267 47.1784C65.3663 46.7689 65.0716 46.1814 65.0716 45.5405C65.0716 45.3981 65.09 45.2734 65.1084 45.131C65.311 44.0984 66.2503 43.3151 67.3739 43.3151C67.9837 43.3174 68.5679 43.5526 68.9991 43.9695C69.4304 44.3863 69.6737 44.951 69.6761 45.5405C69.6945 46.1814 69.4183 46.7689 68.9578 47.1784ZM24.2753 38.081H24.2384C20.4259 38.081 17.2763 40.7692 16.6501 44.2765C16.4734 45.2927 16.5164 46.3333 16.7766 47.3326C17.0367 48.332 17.5083 49.2683 18.1615 50.0827C18.8148 50.8971 19.6356 51.5717 20.5721 52.0641C21.5086 52.5565 22.5405 52.856 23.6027 52.9436C24.6649 53.0312 25.7344 52.9051 26.7437 52.5732C27.753 52.2413 28.6802 51.7108 29.4667 51.0152C30.2533 50.3196 30.8822 49.474 31.3137 48.5317C31.7453 47.5895 31.9701 46.571 31.9741 45.5405C31.9765 44.5617 31.7791 43.5921 31.3933 42.6872C31.0075 41.7823 30.4408 40.9598 29.7257 40.2669C29.0105 39.574 28.161 39.0242 27.2257 38.6491C26.2905 38.274 25.2878 38.081 24.2753 38.081ZM25.8224 47.1784C25.4172 47.5344 24.8646 47.7659 24.2568 47.7659C23.649 47.7659 23.1149 47.5344 22.6913 47.1784C22.2308 46.7689 21.9361 46.1814 21.9361 45.5405C21.9361 45.3981 21.9546 45.2734 21.973 45.131C22.0282 44.8105 22.1572 44.5257 22.3413 44.2587C22.765 43.6889 23.4464 43.2973 24.2384 43.2973C24.5428 43.2956 24.8445 43.3526 25.1258 43.465C25.4071 43.5773 25.6624 43.7428 25.8768 43.9516C26.0912 44.1605 26.2603 44.4086 26.3743 44.6814C26.4883 44.9542 26.5449 45.2463 26.5407 45.5405C26.5591 46.1814 26.2644 46.7689 25.8224 47.1784Z" fill="white"/>
<path d="M21.4755 38.081H14.9739V44.2765H16.1711C16.1711 44.2586 16.1711 44.223 16.1895 44.2052C16.6868 41.3033 18.768 39.0245 21.4755 38.081ZM83.3791 40.3954C83.3422 36.995 83.4528 33.6124 83.3054 30.212C82.1819 29.7135 81.04 29.215 79.9165 28.6987C79.1245 28.3426 78.3325 27.9866 77.5589 27.6127C77.4484 27.5771 77.3563 27.5237 77.2642 27.4703C75.6619 26.6335 75.7171 24.5506 75.1093 23.0729C74.4831 20.5626 73.4333 18.1236 72.807 15.6312C72.4018 14.0467 72.1624 12.4266 72.3097 10.7709C67.7052 10.6997 63.1191 10.7353 58.5513 10.7709H58.5145L58.4961 10.7531V16.2365L58.5145 16.2543C58.4961 23.518 58.4408 30.7995 58.5145 38.0631H27.0562C29.7821 39.0067 31.8449 41.2855 32.3607 44.1696C32.3607 44.1874 32.3607 44.223 32.3791 44.2408H58.625C59.7485 40.7692 62.5665 37.4222 66.6185 37.2086C71.0757 36.5855 75.2198 39.8969 76.1776 44.0272C79.1245 44.0628 82.053 44.0628 84.9999 44.0628C84.9999 42.87 85.0367 41.6594 85.0367 40.4666C84.4473 40.4488 83.9316 40.431 83.3791 40.3954ZM64.5741 27.0252C64.5373 23.7138 64.482 20.4024 64.6109 17.091C66.9132 17.091 69.2339 17.0554 71.5362 17.1444C72.4387 20.4202 73.5438 23.6782 74.4463 26.9896C71.131 27.043 67.871 27.0252 64.5741 27.0252ZM83.0107 40.6446C81.0216 40.7158 78.9771 40.7158 76.988 40.6802C76.9511 39.523 76.9511 38.3836 76.988 37.2264C78.9771 37.1908 80.9847 37.1908 82.9739 37.2264C83.0476 38.3836 83.0476 39.5052 83.0107 40.6446Z" fill="white"/>
<path d="M43.5737 28.4138L44.7672 28.1058L47.7215 38.7682L46.5299 39.0762L43.5737 28.4138Z" fill="white"/>
<path d="M43.6235 30.8938L46.0069 30.276L47.7326 36.5018L45.3493 37.1196L43.6235 30.8938Z" fill="white"/>
</g>
<defs>
<clipPath id="clip0_615_6087">
<rect width="85" height="53" fill="white"/>
</clipPath>
</defs>
</svg>
