<svg width="78" height="78" viewBox="0 0 78 78" fill="none" xmlns="http://www.w3.org/2000/svg">
<path d="M24.9881 46.8623C24.5971 46.8664 24.2232 47.0235 23.9467 47.3C23.6702 47.5765 23.5131 47.9503 23.509 48.3413C23.509 49.1509 24.1785 49.8204 24.9881 49.8204C25.7977 49.8204 26.4671 49.1509 26.4671 48.3413C26.4671 47.5318 25.7977 46.8623 24.9881 46.8623ZM53.012 46.8623C52.621 46.8664 52.2472 47.0235 51.9707 47.3C51.6942 47.5765 51.537 47.9503 51.533 48.3413C51.533 49.1509 52.2024 49.8204 53.012 49.8204C53.8216 49.8204 54.4911 49.1509 54.4911 48.3413C54.4911 47.5318 53.8216 46.8623 53.012 46.8623Z" fill="#1B2F78"/>
<path d="M39 0C17.4994 0 0 17.4994 0 39C0 60.5006 17.4994 78 39 78C60.5006 78 78 60.5006 78 39C78 17.4994 60.5006 0 39 0ZM39 75.0419C19.1341 75.0419 2.95808 58.8659 2.95808 39C2.95808 19.1341 19.1341 2.95808 39 2.95808C58.8659 2.95808 75.0419 19.1341 75.0419 39C75.0419 58.8659 58.8659 75.0419 39 75.0419Z" fill="#1B2F78"/>
<path d="M57.6048 61.3413C57.994 61.3568 58.3832 61.2323 58.679 60.9676C61.7673 58.2002 64.2391 54.8144 65.9342 51.0299C67.6294 47.2453 68.5098 43.1467 68.5185 38.9999C68.5021 31.1776 65.3863 23.6806 59.8536 18.1509C54.3209 12.6211 46.8223 9.50929 39 9.49695C33.0303 9.50309 27.203 11.32 22.2877 14.7077C17.3725 18.0954 13.6005 22.8945 11.4701 28.471C9.33966 34.0475 8.95103 40.1392 10.3555 45.9412C11.76 51.7433 14.8916 56.9828 19.3365 60.9676C19.4806 61.0999 19.6502 61.2014 19.8349 61.2656C20.0197 61.3299 20.2157 61.3556 20.4107 61.3413C20.7018 61.3257 20.9818 61.2244 21.2155 61.0503C21.4492 60.8761 21.6262 60.6368 21.7244 60.3623C21.8225 60.0879 21.8374 59.7905 21.7671 59.5077C21.6968 59.2248 21.5445 58.969 21.3293 58.7724C16.3106 54.3079 13.1771 48.1022 12.564 41.4131L12.4706 40.479H15.6311C16.4407 40.479 17.1101 39.8095 17.1101 38.9999C17.1101 38.1904 16.4407 37.5209 15.6311 37.5209H12.4862L12.564 36.5868C13.0428 31.2265 15.1508 26.1412 18.6048 22.0143L19.2119 21.2981L21.4383 23.5245C21.5712 23.6782 21.7345 23.8028 21.9177 23.8907C22.101 23.9785 22.3004 24.0276 22.5035 24.0349C22.7066 24.0423 22.909 24.0077 23.0981 23.9333C23.2872 23.8589 23.459 23.7464 23.6027 23.6027C23.7464 23.459 23.859 23.2872 23.9333 23.0981C24.0077 22.909 24.0423 22.7065 24.035 22.5034C24.0276 22.3004 23.9785 22.101 23.8907 21.9177C23.8029 21.7344 23.6782 21.5712 23.5245 21.4383L21.2982 19.2119L22.0143 18.6047C26.1397 15.1481 31.2258 13.0398 36.5868 12.564L37.5209 12.4862V15.6466C37.5209 16.4562 38.1904 17.1257 39 17.1257C39.8095 17.1257 40.479 16.4562 40.479 15.6466V12.4862L41.4131 12.564C46.7734 13.0427 51.8587 15.1507 55.9856 18.6047L56.7018 19.2119L54.4754 21.4383C54.3217 21.5712 54.1971 21.7344 54.1093 21.9177C54.0214 22.101 53.9723 22.3004 53.965 22.5034C53.9576 22.7065 53.9922 22.909 54.0666 23.0981C54.141 23.2872 54.2535 23.459 54.3972 23.6027C54.5409 23.7464 54.7127 23.8589 54.9018 23.9333C55.0909 24.0077 55.2934 24.0423 55.4965 24.0349C55.6996 24.0276 55.899 23.9785 56.0822 23.8907C56.2655 23.8028 56.4287 23.6782 56.5616 23.5245L58.788 21.2981L59.3952 22.0143C62.8518 26.1397 64.9601 31.2258 65.4359 36.5868L65.5137 37.5209H62.3533C61.9623 37.525 61.5884 37.6821 61.3119 37.9586C61.0354 38.2351 60.8783 38.6089 60.8742 38.9999C60.8742 39.8095 61.5437 40.4634 62.3533 40.4634H65.5137L65.4203 41.3975C64.7976 48.1077 61.6994 54.273 56.6862 58.7724C56.471 58.969 56.3187 59.2248 56.2484 59.5077C56.1781 59.7905 56.193 60.0879 56.2911 60.3623C56.3893 60.6368 56.5663 60.8761 56.8 61.0503C57.0337 61.2244 57.3137 61.3257 57.6048 61.3413Z" fill="#1B2F78"/>
<path d="M41.0551 33.2084L40.4791 33.006V24.9881C40.4791 24.1785 39.8096 23.509 39 23.509C38.609 23.5131 38.2352 23.6702 37.9587 23.9467C37.6822 24.2232 37.5251 24.5971 37.521 24.9881V33.006L36.945 33.2084C35.5781 33.6931 34.4265 34.6451 33.6936 35.8965C32.9606 37.1479 32.6935 38.618 32.9394 40.0472C33.1853 41.4764 33.9283 42.7728 35.0373 43.7073C36.1463 44.6418 37.5498 45.1543 39 45.1543C40.4503 45.1543 41.8538 44.6418 42.9628 43.7073C44.0718 42.7728 44.8148 41.4764 45.0607 40.0472C45.3066 38.618 45.0395 37.1479 44.3065 35.8965C43.5736 34.6451 42.422 33.6931 41.0551 33.2084ZM39 42.1917C38.1536 42.1917 37.3418 41.8554 36.7432 41.2569C36.1447 40.6583 35.8084 39.8465 35.8084 39C35.8084 38.1536 36.1447 37.3418 36.7432 36.7432C37.3418 36.1447 38.1536 35.8084 39 35.8084C39.8465 35.8084 40.6583 36.1447 41.2569 36.7432C41.8554 37.3418 42.1917 38.1536 42.1917 39C42.1917 39.8465 41.8554 40.6583 41.2569 41.2569C40.6583 41.8554 39.8465 42.1917 39 42.1917ZM49.8204 53.012C49.8204 52.2024 49.1509 51.533 48.3414 51.533H29.6587C29.2677 51.537 28.8939 51.6942 28.6174 51.9707C28.3409 52.2472 28.1837 52.621 28.1797 53.012V62.3533C28.1797 63.1629 28.8491 63.8324 29.6587 63.8324H48.3414C49.1509 63.8324 49.8204 63.1629 49.8204 62.3533V53.012ZM46.8623 60.8743H31.1378V54.4911H46.8623V60.8743Z" fill="#1B2F78"/>
</svg>
