<svg width="85" height="71" viewBox="0 0 85 71" fill="none" xmlns="http://www.w3.org/2000/svg">
<path d="M60.9167 1.42H24.0833C23.3319 1.42 22.6112 1.71921 22.0799 2.25181C21.5485 2.78442 21.25 3.50678 21.25 4.26V15.62H63.75V4.26C63.75 3.50678 63.4515 2.78442 62.9201 2.25181C62.3888 1.71921 61.6681 1.42 60.9167 1.42Z" fill="white"/>
<path d="M59.4999 8.51999C60.2823 8.51999 60.9166 7.88424 60.9166 7.09999C60.9166 6.31575 60.2823 5.67999 59.4999 5.67999C58.7175 5.67999 58.0833 6.31575 58.0833 7.09999C58.0833 7.88424 58.7175 8.51999 59.4999 8.51999Z" fill="white"/>
<path d="M59.4999 12.78C60.2823 12.78 60.9166 12.1442 60.9166 11.36C60.9166 10.5758 60.2823 9.94 59.4999 9.94C58.7175 9.94 58.0833 10.5758 58.0833 11.36C58.0833 12.1442 58.7175 12.78 59.4999 12.78Z" fill="white"/>
<path d="M55.2499 12.78C56.0323 12.78 56.6666 12.1442 56.6666 11.36C56.6666 10.5758 56.0323 9.94 55.2499 9.94C54.4675 9.94 53.8333 10.5758 53.8333 11.36C53.8333 12.1442 54.4675 12.78 55.2499 12.78Z" fill="white"/>
<path d="M35.4167 56.8C36.1991 56.8 36.8333 56.1642 36.8333 55.38C36.8333 54.5957 36.1991 53.96 35.4167 53.96C34.6343 53.96 34 54.5957 34 55.38C34 56.1642 34.6343 56.8 35.4167 56.8Z" fill="white"/>
<path d="M49.5834 56.8C50.3658 56.8 51.0001 56.1642 51.0001 55.38C51.0001 54.5957 50.3658 53.96 49.5834 53.96C48.801 53.96 48.1667 54.5957 48.1667 55.38C48.1667 56.1642 48.801 56.8 49.5834 56.8Z" fill="white"/>
<path d="M42.5 69.58C39.1185 69.58 35.8755 68.2335 33.4844 65.8368C31.0933 63.4401 29.75 60.1895 29.75 56.8V15.62H55.25V56.8C55.25 60.1895 53.9067 63.4401 51.5156 65.8368C49.1245 68.2335 45.8815 69.58 42.5 69.58Z" fill="white"/>
<path d="M41.0832 55.38H43.9166H41.0832ZM48.1666 41.18C48.1666 42.6864 47.5696 44.1312 46.5069 45.1964C45.4441 46.2616 44.0028 46.86 42.4999 46.86C40.997 46.86 39.5557 46.2616 38.493 45.1964C37.4303 44.1312 36.8332 42.6864 36.8332 41.18C36.8332 36.92 42.4999 26.98 42.4999 26.98C42.4999 26.98 48.1666 36.92 48.1666 41.18ZM9.91658 38.34H7.08325V21.3H9.91658C10.668 21.3 11.3887 21.5992 11.9201 22.1318C12.4514 22.6644 12.7499 23.3868 12.7499 24.14V35.5C12.7499 36.2532 12.4514 36.9756 11.9201 37.5082C11.3887 38.0408 10.668 38.34 9.91658 38.34ZM18.4166 21.3H24.0833V38.34H18.4166V21.3ZM14.1666 24.14H16.9999H14.1666ZM14.1666 35.5H16.9999H14.1666ZM25.4999 24.14H28.3333H25.4999ZM25.4999 35.5H28.3333H25.4999ZM75.0832 46.86H77.9166V63.9H75.0832C74.3318 63.9 73.6111 63.6008 73.0798 63.0682C72.5484 62.5356 72.2499 61.8132 72.2499 61.06V49.7C72.2499 48.138 73.5249 46.86 75.0832 46.86ZM66.5832 63.9H60.9166V46.86H66.5832V63.9ZM70.8332 61.06H67.9999H70.8332ZM70.8332 49.7H67.9999H70.8332ZM59.4999 61.06H55.2499H59.4999ZM59.4999 49.7H56.6666H59.4999ZM83.5832 31.5524L80.9766 32.2056C80.7609 32.2579 80.5609 32.3613 80.3932 32.507C80.2256 32.6528 80.0953 32.8367 80.0132 33.0434C79.8432 33.4552 79.8716 33.938 80.1124 34.3214L81.5007 36.636L79.0641 39.0784L76.7549 37.6868C76.5654 37.5711 76.3513 37.5016 76.1301 37.484C75.9089 37.4664 75.6866 37.5011 75.4812 37.5854C75.2758 37.6697 75.093 37.8011 74.9476 37.9692C74.8022 38.1373 74.6982 38.3373 74.6441 38.553L73.9782 41.18H70.5216L69.8699 38.5672C69.8177 38.351 69.7146 38.1505 69.5692 37.9825C69.4237 37.8145 69.2402 37.6839 69.0341 37.6016C68.8289 37.5157 68.6063 37.4799 68.3846 37.4971C68.1629 37.5144 67.9485 37.5843 67.7591 37.701L65.4499 39.0926L63.0132 36.6502L64.4016 34.3356C64.517 34.1456 64.5863 33.9311 64.6039 33.7093C64.6215 33.4875 64.5868 33.2647 64.5028 33.0589C64.4187 32.853 64.2875 32.6698 64.1198 32.524C63.9521 32.3783 63.7526 32.2741 63.5374 32.2198L60.9166 31.5524V28.0876L63.5232 27.4344C63.7389 27.3821 63.939 27.2787 64.1066 27.1329C64.2742 26.9872 64.4045 26.8032 64.4866 26.5966C64.5723 26.3909 64.608 26.1678 64.5908 25.9456C64.5735 25.7234 64.5038 25.5085 64.3874 25.3186L62.9991 23.004L65.4357 20.5616L67.7449 21.9532C67.9345 22.0689 68.1485 22.1384 68.3697 22.156C68.591 22.1736 68.8132 22.1389 69.0186 22.0546C69.224 21.9703 69.4068 21.8388 69.5522 21.6708C69.6976 21.5027 69.8016 21.3027 69.8557 21.087L70.5216 18.46H73.9782L74.6299 21.0728C74.7432 21.513 75.0407 21.868 75.4657 22.0384C75.8766 22.2088 76.3582 22.1804 76.7407 21.939L79.0499 20.5474L81.4866 22.9898L80.0982 25.3044C79.9828 25.4944 79.9135 25.7089 79.8959 25.9307C79.8783 26.1524 79.913 26.3752 79.9971 26.5811C80.0812 26.787 80.2123 26.9702 80.38 27.1159C80.5477 27.2617 80.7472 27.3659 80.9624 27.4202L83.5832 28.0876V31.5524Z" fill="white"/>
<path d="M72.2501 32.3334C73.8149 32.3334 75.0834 31.0619 75.0834 29.4934C75.0834 27.9249 73.8149 26.6534 72.2501 26.6534C70.6853 26.6534 69.4167 27.9249 69.4167 29.4934C69.4167 31.0619 70.6853 32.3334 72.2501 32.3334Z" fill="white"/>
<path d="M24.0834 57.1124L21.4767 57.7656C21.2611 57.8179 21.061 57.9213 20.8934 58.0671C20.7258 58.2128 20.5955 58.3967 20.5134 58.6034C20.3434 59.0152 20.3717 59.498 20.6126 59.8814L22.0009 62.196L19.5642 64.6384L17.2551 63.2468C17.0655 63.1311 16.8515 63.0616 16.6303 63.044C16.409 63.0264 16.1867 63.0611 15.9813 63.1454C15.776 63.2297 15.5932 63.3611 15.4478 63.5292C15.3024 63.6973 15.1984 63.8973 15.1442 64.113L14.4784 66.74H11.0217L10.3701 64.1272C10.3179 63.911 10.2148 63.7105 10.0693 63.5425C9.9239 63.3745 9.74042 63.2439 9.53425 63.1616C9.32908 63.0757 9.10647 63.0399 8.88479 63.0571C8.6631 63.0744 8.44869 63.1443 8.25925 63.261L5.95008 64.6526L3.51341 62.196L4.90175 59.8814C5.01721 59.6914 5.08652 59.4769 5.1041 59.2551C5.12167 59.0333 5.08702 58.8105 5.00293 58.6047C4.91884 58.3988 4.78767 58.2156 4.61999 58.0698C4.45231 57.9241 4.25281 57.8199 4.03758 57.7656L1.41675 57.1124V53.6476L4.02341 52.9944C4.2391 52.9421 4.43913 52.8387 4.60674 52.6929C4.77435 52.5472 4.90466 52.3632 4.98675 52.1566C5.07247 51.9509 5.10819 51.7278 5.09095 51.5056C5.0737 51.2834 5.004 51.0685 4.88758 50.8786L3.49925 48.564L5.93591 46.1216L8.24508 47.5132C8.43463 47.6289 8.64865 47.6984 8.86989 47.716C9.09114 47.7336 9.31342 47.6989 9.51882 47.6146C9.72421 47.5303 9.90698 47.3988 10.0524 47.2308C10.1978 47.0627 10.3018 46.8627 10.3559 46.647L11.0217 44.02H14.4784L15.1301 46.6328C15.2434 47.073 15.5409 47.428 15.9659 47.5984C16.3767 47.7688 16.8584 47.7404 17.2409 47.499L19.5501 46.1074L21.9867 48.5498L20.5984 50.8644C20.483 51.0544 20.4136 51.2689 20.3961 51.4907C20.3785 51.7124 20.4131 51.9352 20.4972 52.1411C20.5813 52.347 20.7125 52.5302 20.8802 52.6759C21.0479 52.8217 21.2473 52.9259 21.4626 52.9802L24.0834 53.6476V57.1124Z" fill="white"/>
<path d="M12.7501 57.8934C14.3149 57.8934 15.5834 56.6219 15.5834 55.0534C15.5834 53.4849 14.3149 52.2134 12.7501 52.2134C11.1853 52.2134 9.91675 53.4849 9.91675 55.0534C9.91675 56.6219 11.1853 57.8934 12.7501 57.8934Z" fill="white"/>
</svg>
